<svg width="25" height="20" viewBox="0 0 25 20" fill="none" xmlns="http://www.w3.org/2000/svg">
<path d="M21.1115 2.54405C17.7726 0.337889 13.3346 -0.164281 9.648 0.501084C9.648 0.501084 6.83517 0.973845 5.9337 1.49989C5.9337 1.49989 3.30114 3.27771 2.65668 3.93468C-1.09852 7.7628 0.686632 12.025 2.65668 14.0375C3.17188 16.3982 0 19.0935 0 19.0935C0.892795 19.6213 5.50217 21.4455 9.648 17.4876C13.3264 18.1487 17.7643 17.6508 21.1115 15.4408C26.2878 12.1361 26.3047 5.8661 21.1115 2.54405ZM12.7682 15.4195C11.4774 15.4232 10.1916 15.2573 8.94401 14.926L8.08594 15.7546C7.60931 16.2168 7.07563 16.6163 6.49783 16.9434C5.79681 17.2963 5.03526 17.5133 4.25347 17.5827C4.29688 17.5054 4.33507 17.4282 4.3737 17.3552C5.23221 15.7638 5.46369 14.336 5.06814 13.0718C3.65625 11.9603 2.8112 10.5397 2.8112 8.98633C2.8112 5.4273 7.2704 2.54405 12.7682 2.54405C18.2661 2.54405 22.7253 5.4273 22.7253 8.98633C22.7253 12.5454 18.2661 15.4195 12.7682 15.4195ZM7.99132 10.5184C7.59713 10.524 7.21681 10.3731 6.9337 10.0988C6.65058 9.82444 6.48776 9.44907 6.4809 9.0549C6.45052 7.08485 9.42491 7.04188 9.45486 9.00759V9.02973C9.45669 9.22367 9.42028 9.41606 9.3477 9.59592C9.27512 9.77577 9.16779 9.93955 9.03187 10.0779C8.89594 10.2162 8.73408 10.3264 8.55553 10.4022C8.37698 10.4779 8.18526 10.5169 7.99132 10.5184ZM11.1931 9.0549C11.1589 7.08485 14.1332 7.03754 14.1675 9.00325V9.02973C14.1845 10.9863 11.2274 11.0076 11.1931 9.0549ZM17.4162 10.5184C17.022 10.524 16.6416 10.3731 16.3585 10.0988C16.0753 9.82448 15.9123 9.44911 15.9054 9.0549C15.8754 7.08485 18.8498 7.04188 18.8798 9.00759V9.02973C18.8822 9.22384 18.8463 9.41652 18.7739 9.59665C18.7015 9.77679 18.5943 9.94082 18.4582 10.0793C18.3222 10.2178 18.16 10.3279 17.9812 10.4035C17.8024 10.479 17.6104 10.5175 17.4162 10.5184Z" fill="white"/>
</svg>
