<svg width="17" height="17" viewBox="0 0 17 17" fill="none" xmlns="http://www.w3.org/2000/svg">
<g clip-path="url(#clip0_243_216)">
<path d="M0.885498 7.43752C0.885498 7.73091 1.12335 7.96877 1.41675 7.96877C1.71015 7.96877 1.948 7.73091 1.948 7.43752H0.885498ZM2.17715 11.0687C2.06487 10.7976 1.75411 10.6689 1.48304 10.7812C1.21198 10.8935 1.08325 11.2042 1.19553 11.4753L2.17715 11.0687ZM9.72699 15.4202L10.111 14.7715L9.19659 14.2303L8.8126 14.8791L9.72699 15.4202ZM6.88918 14.7715L7.27318 15.4202L8.18749 14.8791L7.80351 14.2303L6.88918 14.7715ZM8.8126 14.8791C8.6761 15.1097 8.32406 15.1097 8.18749 14.8791L7.27318 15.4202C7.82114 16.346 9.17902 16.346 9.72699 15.4202L8.8126 14.8791ZM7.43758 1.94794H9.56258V0.885437H7.43758V1.94794ZM15.0522 7.43752V8.14585H16.1147V7.43752H15.0522ZM5.52685 12.9212C4.63758 12.9058 4.17162 12.8493 3.80637 12.698L3.39978 13.6796C3.96996 13.9157 4.61939 13.9681 5.50855 13.9834L5.52685 12.9212ZM1.19553 11.4753C1.6089 12.4733 2.4018 13.2662 3.39978 13.6796L3.80637 12.698C3.06874 12.3924 2.48269 11.8064 2.17715 11.0687L1.19553 11.4753ZM15.0522 8.14585C15.0522 8.97822 15.0519 9.57591 15.0197 10.0475C14.9878 10.5144 14.9265 10.8188 14.823 11.0687L15.8046 11.4753C15.9707 11.0744 16.0442 10.6408 16.0797 10.1198C16.1149 9.60367 16.1147 8.9637 16.1147 8.14585H15.0522ZM11.4916 13.9834C12.3808 13.9681 13.0302 13.9157 13.6004 13.6796L13.1938 12.698C12.8286 12.8493 12.3626 12.9058 11.4733 12.9212L11.4916 13.9834ZM14.823 11.0687C14.5174 11.8064 13.9314 12.3924 13.1938 12.698L13.6004 13.6796C14.5983 13.2662 15.3912 12.4733 15.8046 11.4753L14.823 11.0687ZM9.56258 1.94794C10.7322 1.94794 11.5721 1.9485 12.2273 2.01079C12.8745 2.07233 13.2864 2.19035 13.6147 2.39155L14.1699 1.48562C13.6465 1.16492 13.0528 1.022 12.3278 0.953062C11.6107 0.884878 10.7116 0.885437 9.56258 0.885437V1.94794ZM16.1147 7.43752C16.1147 6.28847 16.1152 5.38937 16.047 4.67226C15.9781 3.94725 15.8352 3.35359 15.5145 2.83026L14.6085 3.38541C14.8098 3.71375 14.9278 4.12559 14.9893 4.77283C15.0516 5.42798 15.0522 6.26789 15.0522 7.43752H16.1147ZM13.6147 2.39155C14.0198 2.63978 14.3603 2.98035 14.6085 3.38541L15.5145 2.83026C15.1787 2.28223 14.7179 1.82146 14.1699 1.48562L13.6147 2.39155ZM7.43758 0.885437C6.28853 0.885437 5.38944 0.884878 4.67233 0.953062C3.94731 1.022 3.35365 1.16492 2.83032 1.48562L3.38548 2.39155C3.71381 2.19035 4.12566 2.07233 4.7729 2.01079C5.42804 1.9485 6.26795 1.94794 7.43758 1.94794V0.885437ZM1.948 7.43752C1.948 6.26789 1.94856 5.42798 2.01085 4.77283C2.07239 4.12559 2.19041 3.71375 2.39161 3.38541L1.48568 2.83026C1.16499 3.35359 1.02206 3.94725 0.953123 4.67226C0.884939 5.38937 0.885498 6.28847 0.885498 7.43752H1.948ZM2.83032 1.48562C2.28229 1.82146 1.82152 2.28223 1.48568 2.83026L2.39161 3.38541C2.63984 2.98035 2.98041 2.63978 3.38548 2.39155L2.83032 1.48562ZM7.80351 14.2303C7.65971 13.9873 7.53349 13.7729 7.41074 13.6045C7.28139 13.4271 7.13314 13.2674 6.92748 13.1477L6.3933 14.0662C6.42688 14.0857 6.47263 14.1214 6.55206 14.2303C6.63803 14.3483 6.73516 14.5113 6.88918 14.7715L7.80351 14.2303ZM5.50855 13.9834C5.81957 13.9888 6.01657 13.9928 6.16675 14.0094C6.30707 14.025 6.36147 14.0477 6.3933 14.0662L6.92748 13.1477C6.72011 13.0271 6.50432 12.9777 6.28369 12.9533C6.0729 12.93 5.81815 12.9262 5.52685 12.9212L5.50855 13.9834ZM10.111 14.7715C10.265 14.5113 10.3621 14.3483 10.4481 14.2303C10.5275 14.1214 10.5732 14.0857 10.6068 14.0662L10.0727 13.1477C9.86702 13.2674 9.7187 13.4271 9.58943 13.6045C9.46667 13.7729 9.34045 13.9873 9.19659 14.2303L10.111 14.7715ZM11.4733 12.9212C11.182 12.9262 10.9273 12.93 10.7165 12.9533C10.4958 12.9777 10.2801 13.0271 10.0727 13.1477L10.6068 14.0662C10.6387 14.0477 10.6931 14.025 10.8334 14.0094C10.9836 13.9928 11.1806 13.9888 11.4916 13.9834L11.4733 12.9212Z" fill="#DA1E75"/>
<path d="M5.66675 7.79169H5.67312M8.49371 7.79169H8.50008M11.327 7.79169H11.3334" stroke="#DA1E75" stroke-width="2" stroke-linecap="round" stroke-linejoin="round"/>
</g>
<defs>
<clipPath id="clip0_243_216">
<rect width="17" height="17" fill="white"/>
</clipPath>
</defs>
</svg>
