<svg width="23" height="22" viewBox="0 0 23 22" fill="none" xmlns="http://www.w3.org/2000/svg">
<g clip-path="url(#clip0_125_470)">
<path d="M19.1667 0H3.83333C2.81667 0 1.84165 0.386308 1.12276 1.07394C0.403868 1.76158 0 2.69421 0 3.66667L0 14.6667C0.00109728 15.4794 0.283893 16.2688 0.804121 16.9114C1.32435 17.554 2.05264 18.0134 2.875 18.2178V18.8705C2.87498 19.3082 3.01065 19.736 3.26485 20.0999C3.51905 20.4638 3.88037 20.7475 4.3031 20.915C4.72583 21.0825 5.191 21.1263 5.63977 21.0409C6.08854 20.9555 6.50075 20.7447 6.82429 20.4352L9.02175 18.3333H19.1667C20.1833 18.3333 21.1584 17.947 21.8772 17.2594C22.5961 16.5718 23 15.6391 23 14.6667V3.66667C23 2.69421 22.5961 1.76158 21.8772 1.07394C21.1584 0.386308 20.1833 0 19.1667 0ZM21.0833 14.6667C21.0833 15.1529 20.8814 15.6192 20.522 15.963C20.1625 16.3068 19.675 16.5 19.1667 16.5H8.625C8.37085 16.5001 8.12714 16.5967 7.94746 16.7686L5.46825 19.1391C5.41045 19.1858 5.34032 19.2164 5.26555 19.2275C5.19079 19.2386 5.11427 19.2298 5.04439 19.202C4.9745 19.1743 4.91395 19.1287 4.86938 19.0702C4.8248 19.0117 4.79791 18.9426 4.79167 18.8705V17.4167C4.79167 17.1736 4.6907 16.9404 4.51098 16.7685C4.33125 16.5966 4.0875 16.5 3.83333 16.5C3.325 16.5 2.83749 16.3068 2.47805 15.963C2.1186 15.6192 1.91667 15.1529 1.91667 14.6667V3.66667C1.91667 3.18044 2.1186 2.71412 2.47805 2.3703C2.83749 2.02649 3.325 1.83333 3.83333 1.83333H19.1667C19.675 1.83333 20.1625 2.02649 20.522 2.3703C20.8814 2.71412 21.0833 3.18044 21.0833 3.66667V14.6667Z" fill="white"/>
<path d="M6.70833 7.33334C6.45417 7.33334 6.21041 7.42992 6.03069 7.60183C5.85097 7.77374 5.75 8.0069 5.75 8.25001V10.0833C5.75 10.3265 5.85097 10.5596 6.03069 10.7315C6.21041 10.9034 6.45417 11 6.70833 11C6.9625 11 7.20625 10.9034 7.38598 10.7315C7.5657 10.5596 7.66667 10.3265 7.66667 10.0833V8.25001C7.66667 8.0069 7.5657 7.77374 7.38598 7.60183C7.20625 7.42992 6.9625 7.33334 6.70833 7.33334ZM11.5 7.33334C11.2458 7.33334 11.0021 7.42992 10.8224 7.60183C10.6426 7.77374 10.5417 8.0069 10.5417 8.25001V10.0833C10.5417 10.3265 10.6426 10.5596 10.8224 10.7315C11.0021 10.9034 11.2458 11 11.5 11C11.7542 11 11.9979 10.9034 12.1776 10.7315C12.3574 10.5596 12.4583 10.3265 12.4583 10.0833V8.25001C12.4583 8.0069 12.3574 7.77374 12.1776 7.60183C11.9979 7.42992 11.7542 7.33334 11.5 7.33334ZM16.2917 7.33334C16.0375 7.33334 15.7937 7.42992 15.614 7.60183C15.4343 7.77374 15.3333 8.0069 15.3333 8.25001V10.0833C15.3333 10.3265 15.4343 10.5596 15.614 10.7315C15.7937 10.9034 16.0375 11 16.2917 11C16.5458 11 16.7896 10.9034 16.9693 10.7315C17.149 10.5596 17.25 10.3265 17.25 10.0833V8.25001C17.25 8.0069 17.149 7.77374 16.9693 7.60183C16.7896 7.42992 16.5458 7.33334 16.2917 7.33334Z" fill="white"/>
</g>
<defs>
<clipPath id="clip0_125_470">
<rect width="23" height="22" fill="white"/>
</clipPath>
</defs>
</svg>
