<svg width="20" height="20" viewBox="0 0 20 20" fill="none" xmlns="http://www.w3.org/2000/svg">
<circle cx="10" cy="10" r="10" fill="#3E3E3E"/>
<path d="M10.7448 9.99968L14.0563 6.68806C14.262 6.48249 14.262 6.14894 14.0563 5.94337C13.8506 5.73763 13.5174 5.73763 13.3116 5.94337L10.0002 9.25499L6.68851 5.94337C6.48278 5.73763 6.14959 5.73763 5.94385 5.94337C5.73812 6.14894 5.73812 6.48249 5.94385 6.68806L9.2555 9.99968L5.94385 13.3113C5.73812 13.5169 5.73812 13.8504 5.94385 14.056C6.04672 14.1587 6.18154 14.2101 6.31618 14.2101C6.45083 14.2101 6.58565 14.1587 6.68851 14.0558L10.0002 10.7442L13.3116 14.0558C13.4145 14.1587 13.5493 14.2101 13.684 14.2101C13.8186 14.2101 13.9534 14.1587 14.0563 14.0558C14.262 13.8502 14.262 13.5167 14.0563 13.3111L10.7448 9.99968Z" fill="white"/>
</svg>
