<svg width="24" height="26" viewBox="0 0 24 26" fill="none" xmlns="http://www.w3.org/2000/svg">
<path fill-rule="evenodd" clip-rule="evenodd" d="M16.8256 7.09089C16.8256 4.4838 14.6613 2.36362 12.0001 2.36362C9.3388 2.36362 7.17456 4.4838 7.17456 7.09089C7.17456 9.69798 9.3388 11.8182 12.0001 11.8182C14.6613 11.8182 16.8256 9.69798 16.8256 7.09089ZM21.3905 23.6363H19.2383C18.5724 23.6363 18.032 23.1069 18.032 22.4545C18.032 21.8022 18.5724 21.2727 19.2383 21.2727H19.7559C20.5907 21.2727 21.2071 20.449 20.8911 19.6914C19.4301 16.1885 15.9992 14.1818 12.0001 14.1818C8.00092 14.1818 4.56999 16.1885 3.10906 19.6914C2.79299 20.449 3.40945 21.2727 4.24427 21.2727H4.7618C5.42772 21.2727 5.96818 21.8022 5.96818 22.4545C5.96818 23.1069 5.42772 23.6363 4.7618 23.6363H2.60962C1.10165 23.6363 -0.0854211 22.2855 0.234269 20.8425C1.11251 16.8728 3.85461 13.943 7.4665 12.6135C5.81859 11.3147 4.7618 9.32453 4.7618 7.09089C4.7618 2.89425 8.48227 -0.4503 12.8674 0.049609C16.045 0.411245 18.6774 2.89183 19.1539 5.99174C19.5641 8.66383 18.4482 11.1043 16.5336 12.6135C20.1455 13.943 22.8876 16.8728 23.7659 20.8425C24.0856 22.2855 22.8985 23.6363 21.3905 23.6363ZM15.6192 22.4545C15.6192 23.1069 15.0787 23.6363 14.4128 23.6363H13.4525C13.4525 24.8182 13.578 26 12.2462 26C11.579 26 11.0398 25.4705 11.0398 24.8182V23.6363H9.58731C8.92139 23.6363 8.38093 23.1069 8.38093 22.4545C8.38093 21.8022 8.92139 21.2727 9.58731 21.2727H11.0398V20.0909C11.0398 19.4385 11.579 18.9091 12.2462 18.9091C12.9121 18.9091 13.4525 19.4385 13.4525 20.0909V21.2727H14.4128C15.0787 21.2727 15.6192 21.8022 15.6192 22.4545Z" fill="white"/>
</svg>
