<svg width="9" height="9" viewBox="0 0 9 9" fill="none" xmlns="http://www.w3.org/2000/svg">
<path d="M1.95576 0.585739C1.57744 0.207423 0.964055 0.207423 0.585739 0.585739C0.207423 0.964068 0.207423 1.57744 0.585739 1.95575L3.12988 4.49994L0.585765 7.04414C0.207449 7.42234 0.207449 8.03575 0.585765 8.41408C0.964081 8.79241 1.57747 8.79241 1.95576 8.41408L4.49995 5.87001L7.04402 8.41408C7.42235 8.79241 8.03576 8.79241 8.41409 8.41408C8.79242 8.03575 8.79242 7.42234 8.41409 7.04401L5.8699 4.49994L8.41409 1.95575C8.79242 1.57747 8.79242 0.964094 8.41409 0.585777C8.03576 0.207448 7.42235 0.207448 7.04402 0.585777L4.49995 3.12987L1.95576 0.585739Z" fill="white"/>
</svg>
