<svg width="25" height="25" viewBox="0 0 25 25" fill="none" xmlns="http://www.w3.org/2000/svg">
<g clip-path="url(#clip0_164_1001)">
<path fill-rule="evenodd" clip-rule="evenodd" d="M10.8584 13.8454C11.2349 16.0631 11.6923 18.3792 11.9452 18.8557C12.304 19.5307 13.1437 19.7925 13.8202 19.4337C14.4952 19.0748 14.754 18.2322 14.3952 17.5572C14.1423 17.0807 12.482 15.4028 10.8584 13.8454ZM10.2879 11.2881C11.0893 12.0292 15.1173 15.7778 15.6952 16.8689C16.4334 18.2601 15.9011 19.9925 14.5084 20.7322C14.0834 20.9572 13.6261 21.0631 13.1761 21.0631C12.1511 21.0631 11.1584 20.5116 10.6452 19.5454C10.0673 18.4542 9.22462 13.0175 9.06139 11.9381C9.0158 11.6292 9.16874 11.3233 9.44374 11.1792C9.72169 11.0322 10.057 11.0748 10.2879 11.2881ZM12.5005 3.67175C19.3931 3.67175 25.0005 9.28057 25.0005 16.1718C25.0005 17.1762 24.8843 18.1659 24.6534 19.1129L24.5182 19.6747H17.6902V18.2041H23.3446C23.4681 17.5438 23.5299 16.8615 23.5299 16.1718C23.5299 10.0894 18.5814 5.14233 12.5005 5.14233C6.41814 5.14233 1.47109 10.0894 1.47109 16.1718C1.47109 16.8615 1.53286 17.5438 1.65492 18.2041H8.00197V19.6747H0.481387L0.3461 19.1129C0.11666 18.1659 0.000488281 17.1762 0.000488281 16.1718C0.000488281 9.28057 5.60786 3.67175 12.5005 3.67175ZM19.5649 8.75881L20.6046 9.79852L19.137 11.2662L18.0973 10.2265L19.5649 8.75881ZM5.43492 8.75881L6.90256 10.2264L5.86285 11.2662L4.39523 9.7985L5.43493 8.75878L5.43492 8.75881ZM13.2352 6.1369V8.21337H11.7646V6.13688L13.2352 6.1369Z" fill="white"/>
</g>
<defs>
<clipPath id="clip0_164_1001">
<rect width="25" height="25" fill="white"/>
</clipPath>
</defs>
</svg>
