<svg width="25" height="24" viewBox="0 0 25 24" fill="none" xmlns="http://www.w3.org/2000/svg">
<path d="M16.6667 1C18.3927 1 19.7917 2.34315 19.7917 4C19.7917 4.55228 19.3254 5 18.7501 5C18.1748 5 17.7084 4.55228 17.7084 4C17.7084 3.44772 17.2421 3 16.6667 3H4.16675C3.59146 3 3.12508 3.44772 3.12508 4V20C3.12508 20.5523 3.59146 21 4.16675 21H16.6667C17.2421 21 17.7084 20.5523 17.7084 20V19C17.7084 18.4477 18.1748 18 18.7501 18C19.3254 18 19.7917 18.4477 19.7917 19V20C19.7917 21.6569 18.3927 23 16.6667 23H4.16675C2.44086 23 1.04175 21.6569 1.04175 20V4C1.04175 2.34315 2.44086 1 4.16675 1H16.6667Z" fill="white"/>
<path fill-rule="evenodd" clip-rule="evenodd" d="M21.6657 8.20089C21.3534 7.90106 20.8471 7.90106 20.5347 8.20089L12.4131 15.9977C12.2596 16.145 12.1578 16.3348 12.1222 16.5404L11.9508 17.5272L12.9787 17.3627C13.1929 17.3285 13.3906 17.2308 13.544 17.0835L21.6657 9.28668C21.9781 8.98684 21.9781 8.50072 21.6657 8.20089ZM19.0615 6.78668C20.1875 5.7058 22.013 5.70579 23.1389 6.78667C24.2648 7.86756 24.2648 9.62001 23.1389 10.7009L15.0173 18.4977C14.5566 18.9398 13.9637 19.2327 13.3212 19.3355L12.2933 19.5C10.8833 19.7256 9.66081 18.5521 9.89582 17.1984L10.0671 16.2116C10.1742 15.5948 10.4794 15.0256 10.9399 14.5834L19.0615 6.78668Z" fill="white"/>
<path d="M5.20825 7C5.20825 6.44772 5.67463 6 6.24992 6H14.5833C15.1586 6 15.6249 6.44772 15.6249 7C15.6249 7.55228 15.1586 8 14.5833 8H6.24992C5.67463 8 5.20825 7.55228 5.20825 7Z" fill="white"/>
<path d="M5.20825 11C5.20825 10.4477 5.67463 10 6.24992 10H10.4166C10.9919 10 11.4583 10.4477 11.4583 11C11.4583 11.5523 10.9919 12 10.4166 12H6.24992C5.67463 12 5.20825 11.5523 5.20825 11Z" fill="white"/>
<path d="M5.20825 15C5.20825 14.4477 5.67463 14 6.24992 14H7.29159C7.86688 14 8.33325 14.4477 8.33325 15C8.33325 15.5523 7.86688 16 7.29159 16H6.24992C5.67463 16 5.20825 15.5523 5.20825 15Z" fill="white"/>
</svg>
