<svg width="24" height="24" viewBox="0 0 24 24" fill="none" xmlns="http://www.w3.org/2000/svg">
<g clip-path="url(#clip0_125_458)">
<path d="M23.1089 7.30425L12.6082 0.554248C12.4268 0.437371 12.2157 0.375214 11.9999 0.375214C11.7842 0.375214 11.573 0.437371 11.3917 0.554248L0.891661 7.30425C0.647183 7.46841 0.476819 7.72188 0.417144 8.01025C0.357469 8.29862 0.413243 8.59889 0.572489 8.8466C0.731736 9.0943 0.981759 9.2697 1.26888 9.33512C1.556 9.40053 1.85733 9.35077 2.10816 9.1965L11.9999 2.83725L21.8909 9.1965C22.0151 9.27662 22.1539 9.33145 22.2993 9.35785C22.4447 9.38425 22.5939 9.3817 22.7383 9.35035C22.8827 9.319 23.0196 9.25946 23.1409 9.17514C23.2623 9.09083 23.3659 8.9834 23.4457 8.859C23.6071 8.60807 23.6622 8.3033 23.5989 8.01173C23.5356 7.72016 23.3598 7.46567 23.1089 7.30425Z" fill="white"/>
<path d="M19.5 8.46825C19.2016 8.46825 18.9155 8.58678 18.7045 8.79775C18.4935 9.00873 18.375 9.29488 18.375 9.59325V19.5007C18.375 20.5342 17.5343 21.3757 16.5 21.3757H15.8707V18.1508C15.8707 16.017 14.1345 14.2807 12 14.2807C9.8655 14.2807 8.13 16.017 8.13 18.1508V21.3757H7.5C7.00277 21.3752 6.52609 21.1773 6.17457 20.8257C5.82304 20.474 5.6254 19.9972 5.625 19.5V9.5925C5.625 9.29413 5.50647 9.00798 5.2955 8.797C5.08452 8.58603 4.79837 8.4675 4.5 8.4675C4.20163 8.4675 3.91548 8.58603 3.7045 8.797C3.49353 9.00798 3.375 9.29413 3.375 9.5925V19.5C3.375 21.7732 5.22525 23.625 7.5 23.625H16.5C18.774 23.625 20.625 21.7732 20.625 19.5V9.5925C20.625 9.29413 20.5065 9.00798 20.2955 8.797C20.0845 8.58603 19.7984 8.4675 19.5 8.4675V8.46825ZM10.38 21.3757V18.1508C10.38 17.2575 11.1068 16.5307 12 16.5307C12.8932 16.5307 13.6207 17.2575 13.6207 18.1508V21.3757H10.38Z" fill="white"/>
</g>
<defs>
<clipPath id="clip0_125_458">
<rect width="24" height="24" fill="white"/>
</clipPath>
</defs>
</svg>
