<svg width="15" height="15" viewBox="0 0 15 15" fill="none" xmlns="http://www.w3.org/2000/svg">
<path d="M7.49993 13.5438C7.00282 13.5433 6.52622 13.3455 6.17493 12.9938L2.04368 8.86876C1.38197 8.22315 0.919945 7.40082 0.712714 6.49986C0.505482 5.59891 0.561793 4.65735 0.87493 3.78751C1.06735 3.19255 1.42099 2.6626 1.89654 2.25656C2.37208 1.85053 2.95091 1.58431 3.56868 1.48751C4.33587 1.43033 5.10445 1.57852 5.79538 1.91685C6.48631 2.25517 7.07466 2.77142 7.49993 3.41251C7.91889 2.76815 8.50428 2.24906 9.19413 1.91019C9.88398 1.57131 10.6526 1.42527 11.4187 1.48751C12.0387 1.58217 12.6202 1.84741 13.0981 2.25358C13.576 2.65976 13.9315 3.19086 14.1249 3.78751C14.4381 4.65735 14.4944 5.59891 14.2871 6.49986C14.0799 7.40082 13.6179 8.22315 12.9562 8.86876L8.82493 12.9938C8.47364 13.3455 7.99704 13.5433 7.49993 13.5438ZM4.02493 2.70626C3.9292 2.69985 3.83316 2.69985 3.73743 2.70626C3.34084 2.77687 2.97197 2.95716 2.67261 3.2267C2.37324 3.49623 2.15537 3.84423 2.04368 4.23126C1.81406 4.87532 1.77568 5.57206 1.93315 6.23744C2.09063 6.90283 2.43724 7.50845 2.93118 7.98126L7.05618 12.1125C7.11428 12.1711 7.18341 12.2176 7.25957 12.2493C7.33573 12.2811 7.41742 12.2974 7.49993 12.2974C7.58244 12.2974 7.66413 12.2811 7.74029 12.2493C7.81645 12.2176 7.88558 12.1711 7.94368 12.1125L12.0687 7.98126C12.5626 7.50845 12.9092 6.90283 13.0667 6.23744C13.2242 5.57206 13.1858 4.87532 12.9562 4.23126C12.8406 3.84605 12.6195 3.50085 12.318 3.23468C12.0165 2.96851 11.6465 2.79197 11.2499 2.72501C10.703 2.69655 10.1583 2.81411 9.6717 3.06562C9.18514 3.31714 8.77425 3.69355 8.48118 4.15626C8.36452 4.30915 8.21417 4.43305 8.04181 4.51834C7.86945 4.60363 7.67974 4.648 7.48743 4.648C7.29512 4.648 7.10541 4.60363 6.93305 4.51834C6.76069 4.43305 6.61033 4.30915 6.49368 4.15626C6.22196 3.74047 5.85769 3.39321 5.4294 3.14166C5.00111 2.89011 4.52041 2.74109 4.02493 2.70626Z" fill="#DA1E75"/>
</svg>
