<svg width="21" height="22" viewBox="0 0 21 22" fill="none" xmlns="http://www.w3.org/2000/svg">
<path d="M18.2064 3.15272C18.2064 2.37885 17.581 1.75151 16.8094 1.75151H16.4601V2.80242C16.4601 3.18935 16.1474 3.50303 15.7616 3.50303H15.0631C15.4489 3.50303 15.7616 3.18935 15.7616 2.80242V0.700605C15.7616 0.313657 15.4489 0 15.0631 0C14.6773 0 14.3646 0.313657 14.3646 0.700605V1.75151H12.6183V2.80242C12.6183 3.18935 12.3055 3.50303 11.9198 3.50303H11.2212C11.607 3.50303 11.9198 3.18935 11.9198 2.80242V0.700605C11.9198 0.313657 11.607 0 11.2212 0C10.8355 0 10.5227 0.313657 10.5227 0.700605V1.75151H8.42716V2.80242C8.42716 3.18935 8.11442 3.50303 7.72864 3.50303H7.03012C7.4159 3.50303 7.72864 3.18935 7.72864 2.80242V0.700605C7.72864 0.313657 7.4159 0 7.03012 0C6.64435 0 6.3316 0.313657 6.3316 0.700605V1.75151H4.5853V2.80242C4.5853 3.18935 4.27256 3.50303 3.88678 3.50303H3.18826C3.57404 3.50303 3.88678 3.18935 3.88678 2.80242V0.700605C3.88678 0.313657 3.57404 0 3.18826 0C2.80249 0 2.48974 0.313657 2.48974 0.700605V1.75151H1.44196C0.670387 1.75151 0.0449219 2.37885 0.0449219 3.15272V5.25454H18.2064V3.15272Z" fill="white"/>
<path d="M17.158 13.3116C15.0362 13.3116 13.3162 15.0368 13.3162 17.165C13.3162 19.2931 15.0362 21.0183 17.158 21.0183C19.2798 21.0183 20.9999 19.2931 20.9999 17.165C20.9999 15.0368 19.2798 13.3116 17.158 13.3116ZM17.158 17.8656C17.0686 17.8656 16.9838 17.8472 16.9052 17.8165L15.63 18.8399L15.1934 18.2925L16.4699 17.2685C16.4648 17.2345 16.4595 17.2004 16.4595 17.165C16.4595 16.9063 16.6009 16.6829 16.8088 16.5615V14.3626H17.5073V16.5615C17.7152 16.6829 17.8565 16.9063 17.8565 17.165C17.8565 17.5519 17.5438 17.8656 17.158 17.8656Z" fill="white"/>
<path d="M1.44147 18.9163H12.9669C12.7426 18.377 12.6178 17.7857 12.6178 17.1648C12.6178 15.2708 13.7712 13.6477 15.4115 12.9612H13.6656V10.8594H15.7611V12.8328C16.2015 12.69 16.6704 12.6109 17.1582 12.6109C17.5194 12.6109 17.8691 12.6577 18.206 12.7376V5.95514H0.0444336V17.5151C0.0444336 18.2893 0.669602 18.9163 1.44147 18.9163ZM13.6656 7.00605H15.7611V9.10786H13.6656V7.00605ZM9.82371 7.00605H11.9193V9.10786H9.82371V7.00605ZM9.82371 10.8594H11.9193V12.9612H9.82371V10.8594ZM9.82371 14.7127H11.9193V16.8145H9.82371V14.7127ZM5.98185 7.00605H8.07741V9.10786H5.98185V7.00605ZM5.98185 10.8594H8.07741V12.9612H5.98185V10.8594ZM5.98185 14.7127H8.07741V16.8145H5.98185V14.7127ZM2.13999 7.00605H4.23555V9.10786H2.13999V7.00605ZM2.13999 10.8594H4.23555V12.9612H2.13999V10.8594ZM2.13999 14.7127H4.23555V16.8145H2.13999V14.7127Z" fill="white"/>
</svg>
