<svg width="26" height="25" viewBox="0 0 26 25" fill="none" xmlns="http://www.w3.org/2000/svg">
<path d="M16.25 20.0521C16.25 20.8808 15.9076 21.6757 15.2981 22.2618C14.6886 22.8478 13.8619 23.1771 13 23.1771C12.1381 23.1771 11.3114 22.8478 10.7019 22.2618C10.0924 21.6757 9.75 20.8808 9.75 20.0521" stroke="white" stroke-width="2" stroke-linecap="round" stroke-linejoin="round"/>
<path d="M6.04604 19.0104C5.51581 18.9022 5.04702 18.6069 4.73215 18.1826C4.41727 17.7583 4.27923 17.236 4.34523 16.7187L5.42857 8.27081C5.70516 6.53399 6.62467 4.95158 8.01798 3.81474C9.41129 2.67788 11.1847 2.06306 13.0119 2.08331C14.8392 2.06306 16.6125 2.67788 18.0058 3.81474C19.3991 4.95158 20.3187 6.53399 20.5953 8.27081L21.6786 16.7187C21.745 17.2346 21.6084 17.7556 21.2957 18.1797C20.9831 18.6036 20.5168 18.9 19.9886 19.0104C15.4035 20.0464 10.6311 20.0464 6.04604 19.0104Z" stroke="white" stroke-width="2" stroke-linecap="round" stroke-linejoin="round"/>
</svg>
