<svg width="19" height="19" viewBox="0 0 19 19" fill="none" xmlns="http://www.w3.org/2000/svg">
<path d="M7.53442 10.156C9.16034 10.156 10.4829 8.83344 10.4829 7.20751C10.4829 5.58159 9.16034 4.25903 7.53442 4.25903C5.90882 4.25903 4.58594 5.58159 4.58594 7.20751C4.58594 8.83344 5.90849 10.156 7.53442 10.156ZM5.56876 6.22469H6.55159V5.24186C6.55159 5.06069 6.69836 4.91425 6.8792 4.91425H8.18963C8.37048 4.91425 8.51724 5.06069 8.51724 5.24186V6.22469H9.50007C9.68091 6.22469 9.82768 6.37113 9.82768 6.55229V7.86273C9.82768 8.0439 9.68091 8.19034 9.50007 8.19034H8.51724V9.17317C8.51724 9.35433 8.37048 9.50077 8.18963 9.50077H6.8792C6.69836 9.50077 6.55159 9.35433 6.55159 9.17317V8.19034H5.56876C5.38792 8.19034 5.24116 8.0439 5.24116 7.86273V6.55229C5.24116 6.37113 5.38792 6.22469 5.56876 6.22469Z" fill="white"/>
<path d="M10.4829 1.63804V0.327609V0H4.58594V0.327609V1.63804V1.96565H10.4829V1.63804Z" fill="white"/>
<path d="M7.20741 7.86248V8.8453H7.86263V7.86248C7.86263 7.68131 8.00939 7.53487 8.19023 7.53487H9.17306V6.87965H8.19023C8.00939 6.87965 7.86263 6.73321 7.86263 6.55204V5.56921H7.20741V6.55204C7.20741 6.73321 7.06064 6.87965 6.8798 6.87965H5.89697V7.53487H6.8798C7.06064 7.53487 7.20741 7.68131 7.20741 7.86248Z" fill="white"/>
<path d="M14.2095 0.655396H11.1382V1.31061H13.7591C13.9399 1.31061 14.0867 1.45705 14.0867 1.63822V17.3634C14.0867 17.5446 13.9399 17.6911 13.7591 17.6911H0.982338C0.801498 17.6911 0.654729 17.5446 0.654729 17.3634V1.63822C0.654729 1.45705 0.801498 1.31061 0.982338 1.31061H3.93082V0.655396H0.531876C0.238339 0.655396 -0.000488281 0.894222 -0.000488281 1.18776V17.8139C-0.000488281 18.1074 0.238339 18.3463 0.531876 18.3463H14.2095C14.5031 18.3463 14.7419 18.1074 14.7419 17.8139V1.18776C14.7419 0.894222 14.5031 0.655396 14.2095 0.655396Z" fill="white"/>
<path d="M3.93093 1.96533H1.31006V17.0353H13.4316V1.96533H11.1383V2.29294C11.1383 2.47411 10.9916 2.62055 10.8107 2.62055H4.25854C4.0777 2.62055 3.93093 2.47411 3.93093 2.29294V1.96533ZM8.18984 12.7764H4.25854C4.0777 12.7764 3.93093 12.63 3.93093 12.4488C3.93093 12.2676 4.0777 12.1212 4.25854 12.1212H8.18984C8.37068 12.1212 8.51745 12.2676 8.51745 12.4488C8.51745 12.63 8.37068 12.7764 8.18984 12.7764ZM10.4831 13.7592C10.6639 13.7592 10.8107 13.9057 10.8107 14.0869C10.8107 14.268 10.6639 14.4145 10.4831 14.4145H6.5518C6.37096 14.4145 6.22419 14.268 6.22419 14.0869C6.22419 13.9057 6.37096 13.7592 6.5518 13.7592H10.4831ZM2.29289 12.1212H2.9481C3.12894 12.1212 3.27571 12.2676 3.27571 12.4488C3.27571 12.63 3.12894 12.7764 2.9481 12.7764H2.29289C2.11204 12.7764 1.96528 12.63 1.96528 12.4488C1.96528 12.2676 2.11204 12.1212 2.29289 12.1212ZM2.29289 13.7592H5.24136C5.4222 13.7592 5.56897 13.9057 5.56897 14.0869C5.56897 14.268 5.4222 14.4145 5.24136 14.4145H2.29289C2.11204 14.4145 1.96528 14.268 1.96528 14.0869C1.96528 13.9057 2.11204 13.7592 2.29289 13.7592ZM2.9481 16.0525H2.29289C2.11204 16.0525 1.96528 15.9061 1.96528 15.7249C1.96528 15.5437 2.11204 15.3973 2.29289 15.3973H2.9481C3.12894 15.3973 3.27571 15.5437 3.27571 15.7249C3.27571 15.9061 3.12894 16.0525 2.9481 16.0525ZM8.18984 16.0525H4.25854C4.0777 16.0525 3.93093 15.9061 3.93093 15.7249C3.93093 15.5437 4.0777 15.3973 4.25854 15.3973H8.18984C8.37068 15.3973 8.51745 15.5437 8.51745 15.7249C8.51745 15.9061 8.37068 16.0525 8.18984 16.0525ZM12.4488 16.0525H9.50028C9.31944 16.0525 9.17267 15.9061 9.17267 15.7249C9.17267 15.5437 9.31944 15.3973 9.50028 15.3973H12.4488C12.6296 15.3973 12.7764 15.5437 12.7764 15.7249C12.7764 15.9061 12.6296 16.0525 12.4488 16.0525ZM12.4488 14.4158H11.7935C11.6127 14.4158 11.4659 14.2693 11.4659 14.0882C11.4659 13.907 11.6127 13.7606 11.7935 13.7606H12.4488C12.6296 13.7606 12.7764 13.907 12.7764 14.0882C12.7764 14.2693 12.6296 14.4158 12.4488 14.4158ZM12.4488 12.1212C12.6296 12.1212 12.7764 12.2676 12.7764 12.4488C12.7764 12.63 12.6296 12.7764 12.4488 12.7764H9.50028C9.31944 12.7764 9.17267 12.63 9.17267 12.4488C9.17267 12.2676 9.31944 12.1212 9.50028 12.1212H12.4488ZM7.53463 3.60338C9.52157 3.60338 11.1383 5.22013 11.1383 7.20707C11.1383 9.19402 9.52157 10.8108 7.53463 10.8108C5.54768 10.8108 3.93093 9.19402 3.93093 7.20707C3.93093 5.22013 5.54735 3.60338 7.53463 3.60338Z" fill="white"/>
<path d="M16.3789 6.87964H18.9998V8.84529H16.3789V6.87964Z" fill="white"/>
<path d="M16.3789 9.50073H18.9998V14.0873H16.3789V9.50073Z" fill="white"/>
<path d="M18.1706 0H17.2081C16.7507 0 16.3789 0.372164 16.3789 0.829178V2.29326V6.22457H18.9998V2.29326V0.829178C18.9998 0.372164 18.6279 0 18.1706 0V0Z" fill="white"/>
<path d="M16.3789 16.3802C16.3789 16.4513 16.4018 16.5201 16.4444 16.5768L17.3617 17.7998V18.6735C17.3617 18.8547 17.5085 19.0011 17.6893 19.0011C17.8702 19.0011 18.017 18.8547 18.017 18.6735V17.7998L18.9343 16.5768C18.9768 16.5201 18.9998 16.4513 18.9998 16.3802V14.7422H16.3789V16.3802Z" fill="white"/>
</svg>
