<svg width="19" height="13" viewBox="0 0 19 13" fill="none" xmlns="http://www.w3.org/2000/svg">
<path d="M18.9089 3.06531V2.06816C18.9089 0.925945 17.9829 0 16.8407 0H2.06816C0.925945 0 0 0.925945 0 2.06816V3.06531C0 3.16728 0.0826895 3.24997 0.184657 3.24997H18.7242C18.8262 3.24997 18.9089 3.16728 18.9089 3.06531Z" fill="white"/>
<path d="M0 4.61654V10.9318C0 12.074 0.925945 13 2.06816 13H16.8407C17.9829 13 18.9089 12.074 18.9089 10.9318V4.61654C18.9089 4.51457 18.8262 4.43188 18.7242 4.43188H0.184657C0.0826895 4.43188 0 4.51457 0 4.61654ZM4.72722 9.45456C4.72722 9.78088 4.46265 10.0455 4.13632 10.0455H3.54542C3.21909 10.0455 2.95451 9.78088 2.95451 9.45456V8.86366C2.95451 8.53733 3.21909 8.27275 3.54542 8.27275H4.13632C4.46265 8.27275 4.72722 8.53733 4.72722 8.86366V9.45456Z" fill="white"/>
</svg>
