<svg width="24" height="24" viewBox="0 0 24 24" fill="none" xmlns="http://www.w3.org/2000/svg">
<g clip-path="url(#clip0_164_943)">
<path d="M23.4894 15.2254C22.642 14.1574 21.0872 14.0022 20.0462 14.8757L16.3377 17.9874H14.5982C15.4663 17.6322 16.0935 16.7957 16.1201 15.8228C16.1575 14.4599 15.066 13.3417 13.7072 13.3417H6.42816V12.6055C6.42816 12.1732 6.07767 11.8227 5.64539 11.8227H0.782766C0.350484 11.8227 0 12.1732 0 12.6055V22.6253C0 23.0576 0.350484 23.408 0.782766 23.408H5.64544C6.07772 23.408 6.4282 23.0576 6.4282 22.6253V21.3443L7.96078 22.6301C8.38294 22.9843 8.919 23.1793 9.47011 23.1793H16.806C17.3572 23.1793 17.8932 22.9842 18.3154 22.63L23.1234 18.5958C24.1297 17.7513 24.294 16.2394 23.4894 15.2254ZM4.86267 21.8425H1.56553V13.3882H4.86267C4.86267 13.8916 4.86267 21.4822 4.86267 21.8425ZM22.117 17.3965L17.309 21.4307C17.1683 21.5488 16.9896 21.6138 16.8059 21.6138H9.47002C9.28631 21.6138 9.10767 21.5488 8.96691 21.4307L6.42811 19.3007V14.9073H13.7071C14.1822 14.9073 14.5684 15.2974 14.5552 15.78C14.5427 16.2343 14.1471 16.6039 13.6733 16.6039C13.3328 16.6039 10.9022 16.6039 10.5941 16.6039C10.1618 16.6039 9.81131 16.9544 9.81131 17.3867C9.81131 17.819 10.1618 18.1695 10.5941 18.1695H11.9811L13.1937 19.1868C13.4752 19.4229 13.8325 19.553 14.1999 19.553H16.3378C16.7052 19.553 17.0625 19.423 17.3441 19.1868L21.0526 16.0751C21.4163 15.7698 21.9631 15.8204 22.2631 16.1985C22.5456 16.5545 22.4801 17.092 22.117 17.3965Z" fill="white"/>
<path d="M17.2537 4.33299L14.11 3.87624L12.7042 1.02755C12.4176 0.446955 11.587 0.446626 11.3003 1.02755L9.89443 3.87624L6.75076 4.33299C6.11003 4.42613 5.85306 5.21592 6.31693 5.66813L8.59168 7.8856L8.05464 11.0166C7.94514 11.6547 8.6169 12.1432 9.19037 11.8418L12.0022 10.3635L14.814 11.8417C15.3838 12.1413 16.0599 11.659 15.9497 11.0165L15.4127 7.88555L17.6874 5.66813C18.1511 5.2162 17.8948 4.42613 17.2537 4.33299ZM14.1387 9.71799C11.591 8.37858 12.4239 8.37314 9.86579 9.71799C10.3525 6.87975 10.6133 7.66997 8.54537 5.6542C11.3835 5.2418 10.7087 5.7638 12.0023 3.14269C13.2767 5.72503 12.6013 5.23899 15.4591 5.6542C13.3975 7.66378 13.6504 6.87122 14.1387 9.71799Z" fill="white"/>
</g>
<defs>
<clipPath id="clip0_164_943">
<rect width="24" height="24" fill="white"/>
</clipPath>
</defs>
</svg>
