<svg width="21" height="21" viewBox="0 0 21 21" fill="none" xmlns="http://www.w3.org/2000/svg">
<g clip-path="url(#clip0_164_1016)">
<path fill-rule="evenodd" clip-rule="evenodd" d="M17.3907 18.9H3.61008C2.86837 18.9 2.32066 18.1681 2.60041 17.4951C3.8984 14.3829 6.94778 12.6 10.4998 12.6C14.053 12.6 17.1024 14.3829 18.4003 17.4951C18.6801 18.1681 18.1324 18.9 17.3907 18.9ZM6.2125 6.29998C6.2125 3.98368 8.13644 2.09998 10.4998 2.09998C12.8643 2.09998 14.7872 3.98368 14.7872 6.29998C14.7872 8.61628 12.8643 10.5 10.4998 10.5C8.13644 10.5 6.2125 8.61628 6.2125 6.29998ZM20.9535 18.5178C20.1742 14.9908 17.7369 12.3879 14.5289 11.2066C16.2288 9.86576 17.2203 7.69748 16.8558 5.32343C16.4335 2.56928 14.0948 0.365376 11.2716 0.0440757C7.37437 -0.400074 4.06882 2.57143 4.06882 6.29998C4.06882 8.28448 5.00776 10.0527 6.47188 11.2066C3.26281 12.3879 0.826522 14.9908 0.0462252 18.5178C-0.23674 19.7998 0.817948 21 2.15667 21H18.843C20.1828 21 21.2375 19.7998 20.9535 18.5178Z" fill="white"/>
</g>
<defs>
<clipPath id="clip0_164_1016">
<rect width="21" height="21" fill="white"/>
</clipPath>
</defs>
</svg>
