<svg width="24" height="23" viewBox="0 0 24 23" fill="none" xmlns="http://www.w3.org/2000/svg">
<g clip-path="url(#clip0_125_461)">
<path fill-rule="evenodd" clip-rule="evenodd" d="M24 21.3739L22.3029 23L17.2114 18.1217L18.9086 16.4945L24 21.3739ZM9.59999 16.1C5.63085 16.1 2.40001 13.0054 2.40001 9.2C2.40001 5.3958 5.63085 2.3 9.59999 2.3C13.5691 2.3 16.8 5.3958 16.8 9.2C16.8 13.0054 13.5691 16.1 9.59999 16.1ZM9.59999 0C4.29828 0 0 4.1193 0 9.2C0 14.2807 4.29828 18.4 9.59999 18.4C14.9017 18.4 19.2 14.2807 19.2 9.2C19.2 4.1193 14.9017 0 9.59999 0Z" fill="white"/>
</g>
<defs>
<clipPath id="clip0_125_461">
<rect width="24" height="23" fill="white"/>
</clipPath>
</defs>
</svg>
