<svg width="14" height="15" viewBox="0 0 14 15" fill="none" xmlns="http://www.w3.org/2000/svg">
<g clip-path="url(#clip0_243_220)">
<path d="M4.96424 6.79454L14.2901 3.11077M4.99851 7.17572L4.9733 10.8449C4.96724 11.7316 4.96417 12.1749 5.13129 12.3736C5.27633 12.546 5.49526 12.6312 5.72057 12.6031C5.98017 12.5706 6.28493 12.2447 6.89449 11.5931L13.49 4.54181C14.0211 3.97402 14.2866 3.6901 14.3188 3.43412C14.3467 3.21142 14.2774 2.99283 14.13 2.83946C13.9606 2.66312 13.5941 2.62904 12.861 2.56082L3.75777 1.71397C2.91648 1.6357 2.49583 1.59657 2.2758 1.75368C2.08485 1.89001 1.96286 2.10999 1.94746 2.34577C1.92969 2.61751 2.18217 2.9599 2.68721 3.64454L4.77693 6.47789C4.86017 6.59073 4.90179 6.64711 4.93113 6.70999C4.95723 6.76587 4.97611 6.82536 4.98733 6.887C5.00005 6.95656 4.99951 7.02961 4.99851 7.17572Z" stroke="#DA1E75" stroke-linecap="round" stroke-linejoin="round"/>
</g>
<defs>
<clipPath id="clip0_243_220">
<rect width="14" height="15" fill="white"/>
</clipPath>
</defs>
</svg>
