<svg width="23" height="19" viewBox="0 0 23 19" fill="none" xmlns="http://www.w3.org/2000/svg">
<path d="M21.625 11H19.375C18.1324 11 17.125 11.97 17.125 13.1667V15.3333C17.125 16.53 18.1324 17.5 19.375 17.5C20.6176 17.5 21.625 16.53 21.625 15.3333V11ZM21.625 11C21.625 5.61522 17.0919 1.25 11.5 1.25C5.90812 1.25 1.375 5.61522 1.375 11M1.375 11V15.3333C1.375 16.53 2.38236 17.5 3.625 17.5C4.86764 17.5 5.875 16.53 5.875 15.3333V13.1667C5.875 11.97 4.86764 11 3.625 11H1.375Z" stroke="white" stroke-width="2" stroke-linecap="round" stroke-linejoin="round"/>
</svg>
