<svg width="24" height="24" viewBox="0 0 24 24" fill="none" xmlns="http://www.w3.org/2000/svg">
<g clip-path="url(#clip0_125_468)">
<path d="M23.6999 20.308C23.3472 18.7722 22.6935 17.3216 21.7766 16.0401C20.8596 14.7585 19.6977 13.6716 18.3579 12.842C19.2644 11.6568 19.8213 10.2417 19.9658 8.75665C20.1103 7.27157 19.8366 5.77567 19.1756 4.43797C18.5146 3.10027 17.4927 1.97408 16.2253 1.18665C14.9579 0.399222 13.4955 -0.0180664 12.0034 -0.0180664C10.5113 -0.0180664 9.04897 0.399222 7.78157 1.18665C6.51417 1.97408 5.49224 3.10027 4.83125 4.43797C4.17025 5.77567 3.89654 7.27157 4.04104 8.75665C4.18553 10.2417 4.74247 11.6568 5.64894 12.842C4.30802 13.6702 3.14506 14.7566 2.22766 16.0381C1.31025 17.3196 0.656681 18.7707 0.304935 20.307C0.202128 20.7501 0.201086 21.2108 0.30189 21.6543C0.402693 22.0979 0.602719 22.5129 0.886935 22.868C1.16629 23.2218 1.52233 23.5075 1.92821 23.7036C2.33408 23.8997 2.77918 24.001 3.22994 24H20.7699C21.2207 24.001 21.6658 23.8997 22.0717 23.7036C22.4775 23.5075 22.8336 23.2218 23.1129 22.868C23.398 22.5135 23.5989 22.0989 23.7006 21.6555C23.8023 21.212 23.802 20.7513 23.6999 20.308ZM11.9999 2.00001C13.1866 2.00001 14.3467 2.3519 15.3334 3.01119C16.3201 3.67048 17.0891 4.60755 17.5432 5.70391C17.9973 6.80026 18.1162 8.00666 17.8846 9.17055C17.6531 10.3344 17.0817 11.4035 16.2426 12.2426C15.4035 13.0818 14.3344 13.6532 13.1705 13.8847C12.0066 14.1162 10.8002 13.9974 9.70383 13.5433C8.60748 13.0892 7.67041 12.3201 7.01112 11.3334C6.35183 10.3467 5.99994 9.1867 5.99994 8.00001C6.00152 6.4092 6.63417 4.884 7.75905 3.75912C8.88392 2.63425 10.4091 2.0016 11.9999 2.00001ZM21.5489 21.623C21.4565 21.7412 21.3382 21.8366 21.2032 21.902C21.0682 21.9673 20.92 22.0008 20.7699 22H3.22994C3.07992 22.0008 2.9317 21.9673 2.79667 21.902C2.66163 21.8366 2.54336 21.7412 2.45094 21.623C2.35421 21.5024 2.28599 21.3616 2.25136 21.2109C2.21672 21.0603 2.21658 20.9037 2.25094 20.753C2.56134 19.3982 3.15354 18.124 3.98899 17.0132C4.82444 15.9024 5.88441 14.98 7.09994 14.306C8.49967 15.4042 10.2273 16.001 12.0064 16.001C13.7855 16.001 15.5132 15.4042 16.9129 14.306C18.1258 14.9828 19.183 15.9065 20.0164 17.0176C20.8498 18.1286 21.4407 19.4022 21.7509 20.756C21.7847 20.9064 21.7841 21.0625 21.7491 21.2126C21.7141 21.3627 21.6457 21.503 21.5489 21.623Z" fill="white"/>
</g>
<defs>
<clipPath id="clip0_125_468">
<rect width="24" height="24" fill="white"/>
</clipPath>
</defs>
</svg>
