<svg width="27" height="27" viewBox="0 0 27 27" fill="none" xmlns="http://www.w3.org/2000/svg">
<path d="M13.5 24.3787C12.6052 24.378 11.7473 24.0219 11.115 23.3887L3.67872 15.9637C2.48765 14.8016 1.656 13.3214 1.28298 11.6997C0.909965 10.078 1.01133 8.38319 1.57497 6.81749C1.92133 5.74655 2.55788 4.79264 3.41386 4.06177C4.26985 3.33091 5.31174 2.85173 6.42372 2.67749C7.80466 2.57456 9.1881 2.84131 10.4318 3.45029C11.6755 4.05928 12.7345 4.98853 13.5 6.14249C14.2541 4.98264 15.3078 4.04827 16.5495 3.4383C17.7913 2.82833 19.1748 2.56545 20.5537 2.67749C21.6698 2.84786 22.7164 3.3253 23.5767 4.05642C24.4369 4.78753 25.0769 5.74352 25.425 6.81749C25.9886 8.38319 26.09 10.078 25.717 11.6997C25.3439 13.3214 24.5123 14.8016 23.3212 15.9637L15.885 23.3887C15.2526 24.0219 14.3948 24.378 13.5 24.3787ZM7.24497 4.87124C7.07267 4.85969 6.89978 4.85969 6.72747 4.87124C6.01362 4.99833 5.34964 5.32285 4.81079 5.80802C4.27194 6.29318 3.87977 6.91959 3.67872 7.61624C3.26541 8.77554 3.19632 10.0297 3.47977 11.2274C3.76322 12.4251 4.38712 13.5152 5.27622 14.3662L12.7012 21.8025C12.8058 21.9079 12.9302 21.9916 13.0673 22.0487C13.2044 22.1059 13.3515 22.1353 13.5 22.1353C13.6485 22.1353 13.7955 22.1059 13.9326 22.0487C14.0697 21.9916 14.1941 21.9079 14.2987 21.8025L21.7237 14.3662C22.6128 13.5152 23.2367 12.4251 23.5202 11.2274C23.8036 10.0297 23.7345 8.77554 23.3212 7.61624C23.1131 6.92285 22.7152 6.3015 22.1725 5.82239C21.6297 5.34328 20.9638 5.02551 20.25 4.90499C19.2654 4.85376 18.2849 5.06536 17.4092 5.51808C16.5334 5.97081 15.7938 6.64836 15.2662 7.48124C15.0562 7.75643 14.7856 7.97946 14.4754 8.13298C14.1651 8.2865 13.8236 8.36637 13.4775 8.36637C13.1313 8.36637 12.7898 8.2865 12.4796 8.13298C12.1693 7.97946 11.8987 7.75643 11.6887 7.48124C11.1996 6.73282 10.5439 6.10775 9.77302 5.65495C9.00209 5.20215 8.13684 4.93392 7.24497 4.87124Z" fill="white"/>
</svg>
