<svg width="16" height="16" viewBox="0 0 16 16" fill="none" xmlns="http://www.w3.org/2000/svg">
<path d="M15.6813 3.72862H10.8324V2.71965C10.8324 1.96396 10.2176 1.34912 9.46187 1.34912H6.53809C5.78241 1.34912 5.16756 1.96393 5.16756 2.71965V3.72865H0.318719C0.142688 3.72862 0 3.87137 0 4.04737V14.3322C0 14.5082 0.142688 14.6509 0.318719 14.6509H15.6813C15.8573 14.6509 16 14.5082 16 14.3322V4.04737C16 3.87137 15.8573 3.72862 15.6813 3.72862ZM6.53809 1.98659H9.46187C9.75194 1.98659 10.0032 2.15593 10.122 2.40093H5.878C5.99678 2.1559 6.24803 1.98659 6.53809 1.98659ZM5.80503 3.03837H10.195V3.72862H5.80503V3.03837ZM0.637438 14.0135V13.0232C1.11434 13.145 1.48737 13.5302 1.59187 14.0135H0.637438ZM15.3626 14.0135H14.3677C14.475 13.5162 14.8663 13.1232 15.3626 13.0134V14.0135ZM13.7208 14.0138L13.7204 14.0135H2.23913L2.23878 14.0138C2.11944 13.1785 1.46638 12.5119 0.637219 12.3725L0.637438 12.3722V4.36609H15.3625V12.3656L15.3628 12.3659C14.5141 12.4899 13.8419 13.1642 13.7208 14.0138Z" fill="white"/>
<path d="M5.73291 4.88696H1.58947C1.41344 4.88696 1.27075 5.02968 1.27075 5.20568C1.27075 5.38168 1.41344 5.5244 1.58947 5.5244H5.73291C5.90894 5.5244 6.05163 5.38168 6.05163 5.20568C6.05163 5.02968 5.90894 4.88696 5.73291 4.88696Z" fill="white"/>
<path d="M7.16712 4.88696H6.81652C6.64049 4.88696 6.4978 5.02968 6.4978 5.20568C6.4978 5.38168 6.64049 5.5244 6.81652 5.5244H7.16712C7.34315 5.5244 7.48583 5.38168 7.48583 5.20568C7.48583 5.02968 7.34315 4.88696 7.16712 4.88696Z" fill="white"/>
</svg>
