<svg width="16" height="15" viewBox="0 0 16 15" fill="none" xmlns="http://www.w3.org/2000/svg">
<g clip-path="url(#clip0_313_240)">
<path fill-rule="evenodd" clip-rule="evenodd" d="M15.3266 12.9961C14.8574 14.4031 13.0192 15.1048 11.706 14.9878C9.91236 14.8278 7.96068 13.889 6.47919 12.855C4.30154 11.335 2.2617 8.9838 1.07306 6.4888C0.233002 4.7258 0.0445241 2.5582 1.29396 0.9512C1.75604 0.3572 2.25562 0.0399573 3.0065 0.00295733C4.0482 -0.0470427 4.19412 0.541059 4.55183 1.45706C4.81834 2.14206 5.17402 2.84081 5.37263 3.55081C5.74452 4.87581 4.44442 4.93119 4.28026 6.01419C4.17791 6.69719 5.01695 7.61313 5.39594 8.10013C6.13871 9.05413 7.03146 9.87696 8.03871 10.503C8.6153 10.862 9.54655 11.5089 10.2072 11.1519C11.2246 10.6019 11.1284 8.90896 12.5511 9.48196C13.2878 9.77796 14.0012 10.2051 14.7044 10.5791C15.7917 11.1561 15.7411 11.7541 15.3266 12.9961C15.6367 12.0681 15.0165 13.9241 15.3266 12.9961Z" fill="white"/>
</g>
<defs>
<clipPath id="clip0_313_240">
<rect width="15.2" height="15" fill="white" transform="translate(0.399902)"/>
</clipPath>
</defs>
</svg>
