<svg width="96" height="96" viewBox="0 0 96 96" fill="none" xmlns="http://www.w3.org/2000/svg">
<path fill-rule="evenodd" clip-rule="evenodd" d="M32 16C32 13.7909 33.6531 12 35.6923 12H60.3076C62.3468 12 64 13.7909 64 16C64 18.2091 62.3468 20 60.3076 20H35.6923C33.6531 20 32 18.2091 32 16Z" fill="#1C274C"/>
<path fill-rule="evenodd" clip-rule="evenodd" d="M39.1111 84H56.8888C69.3732 84 75.6152 84 80.0992 81.1108C82.04 79.86 83.7068 78.2528 85.004 76.3812C88 72.0572 88 66.038 88 53.9996C88 41.9612 87.9992 35.9428 85.0032 31.6189C83.7064 29.747 82.0396 28.1399 80.0984 26.8891C75.6144 24 69.3724 24 56.8884 24H39.1104C26.6264 24 20.3843 24 15.9003 26.8891C13.9592 28.1399 12.2925 29.747 10.9954 31.6189C8 35.9419 8 41.9584 8 53.9916V53.9996C8 66.038 8 72.0572 10.9961 76.3812C12.2931 78.2528 13.9598 79.86 15.901 81.1108C20.385 84 26.627 84 39.1111 84ZM31.3333 53.9996C31.3333 45.1232 38.7952 37.9278 48 37.9278C57.2048 37.9278 64.6668 45.1232 64.6668 53.9996C64.6668 62.8756 57.2048 70.0712 48 70.0712C38.7952 70.0712 31.3333 62.8756 31.3333 53.9996ZM38 53.9996C38 48.674 42.4772 44.3564 48 44.3564C53.5228 44.3564 58 48.674 58 53.9996C58 59.3252 53.5228 63.6424 48 63.6424C42.4772 63.6424 38 59.3252 38 53.9996ZM72.4444 37.9278C70.6036 37.9278 69.1112 39.367 69.1112 41.142C69.1112 42.9176 70.6036 44.3564 72.4444 44.3564H74.6668C76.5076 44.3564 78 42.9176 78 41.142C78 39.367 76.5076 37.9278 74.6668 37.9278H72.4444Z" fill="#1C274C"/>
</svg>
