<svg width="16" height="13" viewBox="0 0 16 13" fill="none" xmlns="http://www.w3.org/2000/svg">
<path d="M13.5114 1.52481C11.3744 0.07233 8.53415 -0.258285 6.17471 0.179773C6.17471 0.179773 4.3745 0.491026 3.79756 0.837357C3.79756 0.837357 2.11272 2.00782 1.70027 2.44036C-0.703054 4.96069 0.439443 7.76677 1.70027 9.0918C2.03 10.646 0 12.4205 0 12.4205C0.571388 12.768 3.52138 13.969 6.17471 11.3632C8.52887 11.7984 11.3691 11.4707 13.5114 10.0156C16.8241 7.83992 16.835 3.71195 13.5114 1.52481ZM8.17165 10.0016C7.3455 10.0041 6.52263 9.89484 5.72415 9.67674L5.17499 10.2222C4.86995 10.5266 4.52839 10.7896 4.1586 11.0049C3.70995 11.2373 3.22256 11.3801 2.72222 11.4258C2.74999 11.375 2.77444 11.3241 2.79916 11.2761C3.3486 10.2283 3.49675 9.2883 3.2436 8.456C2.33999 7.72419 1.79916 6.78893 1.79916 5.76622C1.79916 3.42306 4.65305 1.52481 8.17165 1.52481C11.6903 1.52481 14.5441 3.42306 14.5441 5.76622C14.5441 8.10939 11.6903 10.0016 8.17165 10.0016ZM5.11443 6.77493C4.86215 6.77859 4.61875 6.67924 4.43756 6.49863C4.25636 6.31801 4.15215 6.07088 4.14777 5.81137C4.12832 4.51434 6.03193 4.48605 6.0511 5.78022V5.7948C6.05227 5.92248 6.02896 6.04915 5.98251 6.16756C5.93606 6.28597 5.86737 6.3938 5.78038 6.48488C5.69339 6.57597 5.5898 6.64851 5.47553 6.69838C5.36126 6.74825 5.23855 6.77388 5.11443 6.77493ZM7.1636 5.81137C7.14165 4.51434 9.04526 4.4832 9.0672 5.77737V5.7948C9.07803 7.08297 7.18554 7.09697 7.1636 5.81137ZM11.1464 6.77493C10.8941 6.7786 10.6506 6.67925 10.4694 6.49864C10.2881 6.31804 10.1839 6.0709 10.1794 5.81137C10.1603 4.51434 12.0639 4.48605 12.083 5.78022V5.7948C12.0846 5.92259 12.0616 6.04945 12.0153 6.16804C11.969 6.28664 11.9003 6.39464 11.8132 6.4858C11.7261 6.57697 11.6224 6.6495 11.5079 6.69922C11.3935 6.74894 11.2706 6.77429 11.1464 6.77493Z" fill="white"/>
</svg>
