<svg width="21" height="21" viewBox="0 0 21 21" fill="none" xmlns="http://www.w3.org/2000/svg">
<g clip-path="url(#clip0_1647_37)">
<path d="M20.8101 8.17987L15.3852 2.75489C15.1322 2.50179 14.7217 2.50179 14.4686 2.75489L11.8358 5.38765C11.5827 5.64075 11.5827 6.05116 11.8358 6.30426L12.3317 6.8001L10.9451 6.92159C10.7922 6.935 10.6433 6.96646 10.4996 7.01441C10.3563 6.96658 10.2072 6.93496 10.0549 6.92159L8.66825 6.8001L9.16409 6.30426C9.4172 6.05116 9.4172 5.64075 9.16409 5.38765L6.53134 2.75489C6.27827 2.50179 5.86783 2.50179 5.61472 2.75489L0.189831 8.17987C-0.0632769 8.43293 -0.0632769 8.84338 0.189831 9.09648L2.82258 11.7292C3.07557 11.9822 3.48613 11.9823 3.7392 11.7292L4.32564 11.1428L4.44688 12.5291C4.48659 12.9838 4.68633 13.412 5.00908 13.7347L8.91275 17.6379C9.98428 18.7094 11.1157 18.6094 11.8482 17.8771C12.1952 17.53 15.9769 13.7488 15.9912 13.7345C16.3139 13.4117 16.5134 12.9837 16.5531 12.5291L16.6744 11.1428L17.2608 11.7292C17.5138 11.9822 17.9244 11.9823 18.1774 11.7292L20.8102 9.09644C21.0633 8.84338 21.0633 8.43293 20.8101 8.17987ZM3.28089 10.3543L1.56476 8.63817L6.07311 4.12986L7.78921 5.84595C2.34762 11.2875 3.73748 9.89768 3.28089 10.3543ZM14.4861 13.4042C14.486 13.4043 14.4859 13.4044 14.4859 13.4044C14.2481 13.6425 13.863 13.6426 13.6247 13.4042C13.6243 13.4038 13.6238 13.4035 13.6234 13.403L12.5884 12.3681C12.3353 12.1149 11.9249 12.115 11.6718 12.3681C11.4187 12.6212 11.4187 13.0316 11.6718 13.2847L12.7081 14.3209C12.7083 14.3211 12.7085 14.3213 12.7087 14.3215C12.9461 14.5596 12.9467 14.9442 12.7079 15.1825C12.4701 15.4205 12.085 15.4206 11.8466 15.1823C11.8463 15.182 11.846 15.1818 11.8457 15.1815L10.8103 14.1461C10.5573 13.893 10.1468 13.893 9.89372 14.1461C9.64061 14.3992 9.64061 14.8096 9.89372 15.0627L10.93 16.099C10.9301 16.0991 10.9302 16.0992 10.9304 16.0994C11.167 16.3366 11.1696 16.7212 10.9293 16.961C10.787 17.1038 10.5827 17.1661 10.3828 17.1278C10.1651 17.086 10.0879 16.9799 9.82924 16.7212L5.92554 12.818C5.81795 12.7105 5.75139 12.5677 5.73814 12.4161L5.52215 9.94633C5.79302 9.67542 7.03932 8.42883 7.47179 7.99657L9.94162 8.21297C10.0931 8.22621 10.2357 8.2927 10.3431 8.40008C11.2917 9.34832 14.2418 12.2985 14.4858 12.5426C14.7234 12.7803 14.7235 13.1668 14.4861 13.4042ZM15.3366 11.56C15.1337 11.3571 12.9105 9.13377 11.9145 8.13799L13.528 7.99661C13.9889 8.45717 15.3414 9.81007 15.4777 9.94637L15.3366 11.56ZM17.7191 10.3543C17.112 9.74724 13.3449 5.98008 13.2108 5.846L14.9269 4.1299L19.4352 8.63813L17.7191 10.3543Z" fill="white"/>
</g>
<defs>
<clipPath id="clip0_1647_37">
<rect width="21" height="21" fill="white"/>
</clipPath>
</defs>
</svg>
