<svg width="21" height="21" viewBox="0 0 21 21" fill="none" xmlns="http://www.w3.org/2000/svg">
<g clip-path="url(#clip0_164_1001)">
<path fill-rule="evenodd" clip-rule="evenodd" d="M9.12117 11.6301C9.43741 13.4929 9.82159 15.4385 10.0341 15.8387C10.3355 16.4057 11.0408 16.6256 11.6091 16.3242C12.1761 16.0228 12.3935 15.315 12.0921 14.748C11.8796 14.3478 10.4849 12.9383 9.12117 11.6301ZM8.64188 9.48192C9.31512 10.1045 12.6986 13.2533 13.1841 14.1699C13.8042 15.3385 13.357 16.7936 12.1872 17.415C11.8302 17.604 11.446 17.6929 11.068 17.6929C10.207 17.6929 9.37317 17.2297 8.94206 16.4181C8.45659 15.5015 7.74876 10.9346 7.61164 10.0279C7.57335 9.76852 7.70182 9.51156 7.93282 9.39052C8.1663 9.26699 8.44794 9.3028 8.64188 9.48192ZM10.5005 3.08423C16.2903 3.08423 21.0005 7.79563 21.0005 13.5842C21.0005 14.4279 20.9029 15.2593 20.709 16.0548L20.5953 16.5267H14.8599V15.2914H19.6096C19.7133 14.7368 19.7652 14.1636 19.7652 13.5842C19.7652 8.47505 15.6084 4.31951 10.5005 4.31951C5.39132 4.31951 1.23579 8.47505 1.23579 13.5842C1.23579 14.1636 1.28768 14.7368 1.39021 15.2914H6.72174V16.5267H0.404443L0.290802 16.0548C0.0980726 15.2593 0.000488281 14.4279 0.000488281 13.5842C0.000488281 7.79563 4.71068 3.08423 10.5005 3.08423ZM16.4346 7.35736L17.308 8.23072L16.0751 9.46354L15.2018 8.59018L16.4346 7.35736ZM4.56541 7.35736L5.79823 8.59017L4.92487 9.46353L3.69207 8.23069L4.56542 7.35734L4.56541 7.35736ZM11.1177 5.15495V6.89919H9.88236V5.15494L11.1177 5.15495Z" fill="white"/>
</g>
<defs>
<clipPath id="clip0_164_1001">
<rect width="21" height="21" fill="white"/>
</clipPath>
</defs>
</svg>
