<svg width="22" height="22" viewBox="0 0 22 22" fill="none" xmlns="http://www.w3.org/2000/svg">
<g clip-path="url(#clip0_319_44)">
<path d="M10.9998 8.16667V5.41667M10.9998 5.41667C12.0124 5.41667 12.8332 4.59586 12.8332 3.58333C12.8332 2.57081 11.4582 0.375 10.9998 0.375C10.5415 0.375 9.1665 2.57081 9.1665 3.58333C9.1665 4.59586 9.98729 5.41667 10.9998 5.41667ZM18.3332 12.75L17.937 13.3404C17.2652 14.3417 15.78 14.3037 15.16 13.2695L15.1241 13.2095C14.5018 12.1712 12.9973 12.1709 12.3745 13.209C11.7519 14.2466 10.2476 14.2464 9.62502 13.2086C9.00221 12.1706 7.49765 12.1703 6.87484 13.2083L6.83822 13.2694C6.21645 14.3057 4.72723 14.3411 4.05687 13.3356L3.6665 12.75M18.3332 18.25V11.8333C18.3332 9.80833 16.6915 8.16667 14.6665 8.16667H7.33317C5.30813 8.16667 3.6665 9.80833 3.6665 11.8333V18.25H18.3332Z" stroke="#DA1E75" stroke-width="2" stroke-linecap="round" stroke-linejoin="round"/>
</g>
<defs>
<clipPath id="clip0_319_44">
<rect width="22" height="22" fill="white"/>
</clipPath>
</defs>
</svg>
