<svg width="15" height="15" viewBox="0 0 15 15" fill="none" xmlns="http://www.w3.org/2000/svg">
<path d="M2.25 12.0009H5.43C5.5287 12.0014 5.62655 11.9825 5.71793 11.9452C5.80931 11.9079 5.89242 11.8529 5.9625 11.7834L11.1525 6.58744L13.2825 4.50304C13.3528 4.43334 13.4086 4.35041 13.4467 4.25905C13.4847 4.16768 13.5043 4.06968 13.5043 3.9707C13.5043 3.87172 13.4847 3.77372 13.4467 3.68235C13.4086 3.59098 13.3528 3.50805 13.2825 3.43835L10.1025 0.221784C10.0328 0.151508 9.94983 0.0957289 9.85843 0.0576635C9.76704 0.019598 9.66901 0 9.57 0C9.47099 0 9.37296 0.019598 9.28157 0.0576635C9.19017 0.0957289 9.10722 0.151508 9.0375 0.221784L6.9225 2.34367L1.7175 7.53966C1.64799 7.60972 1.593 7.69281 1.55567 7.78416C1.51835 7.87551 1.49943 7.97333 1.5 8.07201V11.2511C1.5 11.4499 1.57902 11.6407 1.71967 11.7813C1.86032 11.9219 2.05109 12.0009 2.25 12.0009ZM9.57 1.81132L11.6925 3.93321L10.6275 4.9979L8.505 2.87601L9.57 1.81132ZM3 8.37942L7.4475 3.93321L9.57 6.05509L5.1225 10.5013H3V8.37942ZM14.25 13.5004H0.75C0.551088 13.5004 0.360322 13.5794 0.21967 13.72C0.0790176 13.8607 0 14.0514 0 14.2502C0 14.4491 0.0790176 14.6398 0.21967 14.7804C0.360322 14.921 0.551088 15 0.75 15H14.25C14.4489 15 14.6397 14.921 14.7803 14.7804C14.921 14.6398 15 14.4491 15 14.2502C15 14.0514 14.921 13.8607 14.7803 13.72C14.6397 13.5794 14.4489 13.5004 14.25 13.5004Z" fill="#5E5E5E"/>
</svg>
