<svg width="72" height="68" viewBox="0 0 72 68" fill="none" xmlns="http://www.w3.org/2000/svg">
<path d="M4.49657 2.5L67.4965 65.5M28.4516 26.6977C26.6223 28.5876 25.4966 31.1622 25.4966 34C25.4966 39.7991 30.1977 44.5 35.9965 44.5C38.8753 44.5 41.4835 43.3415 43.3801 41.4655M16.7466 15.265C10.099 19.6512 5.03568 26.2438 2.59961 34C7.05948 48.1998 20.3256 58.5 35.9972 58.5C42.9584 58.5 49.4449 56.4679 54.8958 52.9644M32.4965 9.67286C33.648 9.55855 34.816 9.5 35.9972 9.5C51.6692 9.5 64.9352 19.8002 69.3949 34C68.4125 37.129 67.002 40.0683 65.2327 42.75" stroke="black" stroke-width="5" stroke-linecap="round" stroke-linejoin="round"/>
</svg>
