<svg width="52" height="52" viewBox="0 0 52 52" fill="none" xmlns="http://www.w3.org/2000/svg">
<g clip-path="url(#clip0_1516_354)">
<path d="M44.9929 0H7.00759C3.13775 0 0.000488281 3.13714 0.000488281 7.0071V44.9926C0.000488281 48.8626 3.13763 51.9997 7.00759 51.9997H25.7418L25.7737 33.4179H20.9461C20.3187 33.4179 19.8095 32.9106 19.8071 32.2832L19.784 26.2935C19.7815 25.6627 20.2923 25.15 20.9231 25.15H25.7419V19.3624C25.7419 12.646 29.8439 8.98884 35.8354 8.98884H40.7518C41.3809 8.98884 41.891 9.4988 41.891 10.128V15.1785C41.891 15.8074 41.3813 16.3173 40.7525 16.3176L37.7353 16.319C34.4769 16.319 33.846 17.8674 33.846 20.1397V25.1501H41.0057C41.688 25.1501 42.2173 25.7458 42.1369 26.4233L41.4269 32.4131C41.359 32.9862 40.8729 33.4181 40.2958 33.4181H33.8779L33.846 52H44.9931C48.863 52 52.0001 48.8629 52.0001 44.993V7.0071C52 3.13714 48.8628 0 44.9929 0Z" fill="#475993"/>
</g>
<defs>
<clipPath id="clip0_1516_354">
<rect width="52" height="52" fill="white"/>
</clipPath>
</defs>
</svg>
