<svg width="14" height="13" viewBox="0 0 14 13" fill="none" xmlns="http://www.w3.org/2000/svg">
<g clip-path="url(#clip0_164_935)">
<path d="M9.33325 0.541687C10.2998 0.541687 11.0833 1.26923 11.0833 2.16669C11.0833 2.46584 10.8221 2.70835 10.4999 2.70835C10.1777 2.70835 9.91658 2.46584 9.91658 2.16669C9.91658 1.86754 9.65543 1.62502 9.33325 1.62502H2.33325C2.01109 1.62502 1.74992 1.86754 1.74992 2.16669V10.8334C1.74992 11.1325 2.01109 11.375 2.33325 11.375H9.33325C9.65543 11.375 9.91658 11.1325 9.91658 10.8334V10.2917C9.91658 9.99253 10.1777 9.75002 10.4999 9.75002C10.8221 9.75002 11.0833 9.99253 11.0833 10.2917V10.8334C11.0833 11.7308 10.2998 12.4584 9.33325 12.4584H2.33325C1.36676 12.4584 0.583252 11.7308 0.583252 10.8334V2.16669C0.583252 1.26923 1.36676 0.541687 2.33325 0.541687H9.33325Z" fill="white"/>
<path fill-rule="evenodd" clip-rule="evenodd" d="M12.1328 4.44214C11.958 4.27973 11.6744 4.27973 11.4995 4.44214L6.95138 8.66542C6.86539 8.74521 6.8084 8.84802 6.78845 8.95938L6.69249 9.4939L7.26813 9.4048C7.38806 9.38627 7.49878 9.33335 7.5847 9.25356L12.1328 5.03028C12.3078 4.86786 12.3078 4.60455 12.1328 4.44214ZM10.6745 3.67611C11.305 3.09063 12.3273 3.09063 12.9578 3.6761C13.5883 4.26159 13.5883 5.21083 12.9578 5.79632L8.40971 10.0196C8.15176 10.2591 7.81973 10.4177 7.45993 10.4734L6.88429 10.5625C6.09469 10.6847 5.41009 10.0491 5.5417 9.3158L5.63764 8.78128C5.69761 8.44718 5.86848 8.13887 6.12637 7.89934L10.6745 3.67611Z" fill="white"/>
<path d="M2.91675 3.79167C2.91675 3.49251 3.17792 3.25 3.50008 3.25H8.16675C8.48892 3.25 8.75008 3.49251 8.75008 3.79167C8.75008 4.09082 8.48892 4.33333 8.16675 4.33333H3.50008C3.17792 4.33333 2.91675 4.09082 2.91675 3.79167Z" fill="white"/>
<path d="M2.91675 5.95835C2.91675 5.65919 3.17792 5.41669 3.50008 5.41669H5.83341C6.15559 5.41669 6.41675 5.65919 6.41675 5.95835C6.41675 6.25752 6.15559 6.50002 5.83341 6.50002H3.50008C3.17792 6.50002 2.91675 6.25752 2.91675 5.95835Z" fill="white"/>
<path d="M2.91675 8.12498C2.91675 7.82582 3.17792 7.58331 3.50008 7.58331H4.08341C4.40558 7.58331 4.66675 7.82582 4.66675 8.12498C4.66675 8.42414 4.40558 8.66665 4.08341 8.66665H3.50008C3.17792 8.66665 2.91675 8.42414 2.91675 8.12498Z" fill="white"/>
</g>
<defs>
<clipPath id="clip0_164_935">
<rect width="14" height="13" fill="white"/>
</clipPath>
</defs>
</svg>
