<svg width="78" height="78" viewBox="0 0 78 78" fill="none" xmlns="http://www.w3.org/2000/svg">
<path d="M58.5 26C58.5 29.5899 55.5899 32.5 52 32.5C48.4101 32.5 45.5 29.5899 45.5 26C45.5 22.4101 48.4101 19.5 52 19.5C55.5899 19.5 58.5 22.4101 58.5 26Z" fill="#1C274C"/>
<path fill-rule="evenodd" clip-rule="evenodd" d="M39.1866 4.0625H38.8134C31.3113 4.06247 25.4319 4.06244 20.8446 4.67919C16.1492 5.31047 12.4441 6.62782 9.53596 9.53596C6.62782 12.4441 5.31047 16.1492 4.67919 20.8446C4.06244 25.4319 4.06247 31.3112 4.0625 38.8134V39.1866C4.06247 46.6889 4.06244 52.5681 4.67919 57.1555C5.31047 61.8507 6.62782 65.5561 9.53596 68.4642C12.4441 71.3723 16.1492 72.6895 20.8446 73.321C25.4319 73.9375 31.3112 73.9375 38.8134 73.9375H39.1866C46.6889 73.9375 52.5681 73.9375 57.1555 73.321C61.8507 72.6895 65.5561 71.3723 68.4642 68.4642C71.3723 65.5561 72.6895 61.8507 73.321 57.1555C73.9375 52.5681 73.9375 46.6889 73.9375 39.1866V38.8134C73.9375 31.3112 73.9375 25.4319 73.321 20.8446C72.6895 16.1492 71.3723 12.4441 68.4642 9.53596C65.5561 6.62782 61.8507 5.31047 57.1555 4.67919C52.5681 4.06244 46.6889 4.06247 39.1866 4.0625ZM12.9831 12.9831C14.8345 11.1317 17.3393 10.0693 21.4941 9.5107C25.7191 8.94267 31.2708 8.9375 39 8.9375C46.7291 8.9375 52.2808 8.94267 56.5058 9.5107C60.6606 10.0693 63.1654 11.1317 65.0169 12.9831C66.8684 14.8345 67.9309 17.3393 68.4892 21.4941C69.0573 25.7191 69.0625 31.2708 69.0625 39C69.0625 40.4632 69.0622 41.8483 69.0583 43.1613L68.3364 43.0615C59.0941 41.7817 50.6366 46.5865 46.33 53.8284C40.7742 39.7722 26.0924 30.1862 9.68737 32.5419L8.95365 32.6475C8.99057 28.0797 9.11196 24.46 9.5107 21.4941C10.0693 17.3393 11.1317 14.8345 12.9831 12.9831Z" fill="#1C274C"/>
</svg>
