<svg width="61" height="61" viewBox="0 0 61 61" fill="none" xmlns="http://www.w3.org/2000/svg">
<path d="M45.0605 3.89343H15.0605C8.84734 3.89343 3.81055 8.93023 3.81055 15.1434V45.1434C3.81055 51.3566 8.84734 56.3934 15.0605 56.3934H45.0605C51.2738 56.3934 56.3105 51.3566 56.3105 45.1434V15.1434C56.3105 8.93023 51.2738 3.89343 45.0605 3.89343Z" fill="url(#paint0_radial_1516_345)"/>
<path d="M45.0605 3.89343H15.0605C8.84734 3.89343 3.81055 8.93023 3.81055 15.1434V45.1434C3.81055 51.3566 8.84734 56.3934 15.0605 56.3934H45.0605C51.2738 56.3934 56.3105 51.3566 56.3105 45.1434V15.1434C56.3105 8.93023 51.2738 3.89343 45.0605 3.89343Z" fill="url(#paint1_radial_1516_345)"/>
<path d="M45.0605 3.89343H15.0605C8.84734 3.89343 3.81055 8.93023 3.81055 15.1434V45.1434C3.81055 51.3566 8.84734 56.3934 15.0605 56.3934H45.0605C51.2738 56.3934 56.3105 51.3566 56.3105 45.1434V15.1434C56.3105 8.93023 51.2738 3.89343 45.0605 3.89343Z" fill="url(#paint2_radial_1516_345)"/>
<path d="M43.1855 19.8309C43.1855 21.3842 41.9263 22.6434 40.373 22.6434C38.8198 22.6434 37.5605 21.3842 37.5605 19.8309C37.5605 18.2776 38.8198 17.0184 40.373 17.0184C41.9263 17.0184 43.1855 18.2776 43.1855 19.8309Z" fill="white"/>
<path fill-rule="evenodd" clip-rule="evenodd" d="M30.0605 39.5184C35.2382 39.5184 39.4355 35.3211 39.4355 30.1434C39.4355 24.9658 35.2382 20.7684 30.0605 20.7684C24.8829 20.7684 20.6855 24.9658 20.6855 30.1434C20.6855 35.3211 24.8829 39.5184 30.0605 39.5184ZM30.0605 35.7684C33.1672 35.7684 35.6855 33.2501 35.6855 30.1434C35.6855 27.0367 33.1672 24.5184 30.0605 24.5184C26.9539 24.5184 24.4355 27.0367 24.4355 30.1434C24.4355 33.2501 26.9539 35.7684 30.0605 35.7684Z" fill="white"/>
<path fill-rule="evenodd" clip-rule="evenodd" d="M11.3105 29.3934C11.3105 23.0929 11.3105 19.9425 12.5367 17.536C13.6153 15.4192 15.3363 13.6982 17.4532 12.6196C19.8596 11.3934 23.01 11.3934 29.3105 11.3934H30.8105C37.1111 11.3934 40.2615 11.3934 42.6679 12.6196C44.7847 13.6982 46.5058 15.4192 47.5843 17.536C48.8105 19.9425 48.8105 23.0929 48.8105 29.3934V30.8934C48.8105 37.194 48.8105 40.3444 47.5843 42.7507C46.5058 44.8676 44.7847 46.5887 42.6679 47.6672C40.2615 48.8934 37.1111 48.8934 30.8105 48.8934H29.3105C23.01 48.8934 19.8596 48.8934 17.4532 47.6672C15.3363 46.5887 13.6153 44.8676 12.5367 42.7507C11.3105 40.3444 11.3105 37.194 11.3105 30.8934V29.3934ZM29.3105 15.1434H30.8105C34.0228 15.1434 36.2062 15.1464 37.8941 15.2842C39.5383 15.4186 40.379 15.662 40.9655 15.9609C42.3767 16.6799 43.524 17.8273 44.243 19.2384C44.5419 19.8249 44.7855 20.6657 44.9197 22.3099C45.0575 23.9977 45.0605 26.1812 45.0605 29.3934V30.8934C45.0605 34.1057 45.0575 36.2891 44.9197 37.977C44.7855 39.6212 44.5419 40.4619 44.243 41.0484C43.524 42.4596 42.3767 43.6069 40.9655 44.3259C40.379 44.6248 39.5383 44.8684 37.8941 45.0026C36.2062 45.1404 34.0228 45.1434 30.8105 45.1434H29.3105C26.0983 45.1434 23.9149 45.1404 22.227 45.0026C20.5828 44.8684 19.742 44.6248 19.1555 44.3259C17.7444 43.6069 16.5971 42.4596 15.878 41.0484C15.5792 40.4619 15.3357 39.6212 15.2014 37.977C15.0635 36.2891 15.0605 34.1057 15.0605 30.8934V29.3934C15.0605 26.1812 15.0635 23.9977 15.2014 22.3099C15.3357 20.6657 15.5792 19.8249 15.878 19.2384C16.5971 17.8273 17.7444 16.6799 19.1555 15.9609C19.742 15.662 20.5828 15.4186 22.227 15.2842C23.9149 15.1464 26.0983 15.1434 29.3105 15.1434Z" fill="white"/>
<defs>
<radialGradient id="paint0_radial_1516_345" cx="0" cy="0" r="1" gradientUnits="userSpaceOnUse" gradientTransform="translate(22.5605 43.2684) rotate(-55.3758) scale(47.8493)">
<stop stop-color="#B13589"/>
<stop offset="0.79309" stop-color="#C62F94"/>
<stop offset="1" stop-color="#8A3AC8"/>
</radialGradient>
<radialGradient id="paint1_radial_1516_345" cx="0" cy="0" r="1" gradientUnits="userSpaceOnUse" gradientTransform="translate(20.6855 58.2684) rotate(-65.1363) scale(42.3641)">
<stop stop-color="#E0E8B7"/>
<stop offset="0.444662" stop-color="#FB8A2E"/>
<stop offset="0.71474" stop-color="#E2425C"/>
<stop offset="1" stop-color="#E2425C" stop-opacity="0"/>
</radialGradient>
<radialGradient id="paint2_radial_1516_345" cx="0" cy="0" r="1" gradientUnits="userSpaceOnUse" gradientTransform="translate(0.998048 5.76843) rotate(-8.1301) scale(72.9204 15.5969)">
<stop offset="0.156701" stop-color="#406ADC"/>
<stop offset="0.467799" stop-color="#6A45BE"/>
<stop offset="1" stop-color="#6A45BE" stop-opacity="0"/>
</radialGradient>
</defs>
</svg>
