<svg width="18" height="14" viewBox="0 0 18 14" fill="none" xmlns="http://www.w3.org/2000/svg">
<path d="M15.9449 0.0249939H2.05497C0.921781 0.0249939 0 0.946865 0 2.07996V11.9199C0 13.053 0.921871 13.9749 2.05497 13.9749H15.9449C17.078 13.9749 18 13.053 18 11.9199V2.07996C18 0.946865 17.078 0.0249939 15.9449 0.0249939ZM9 12.895H2.05497C1.5174 12.895 1.08 12.4577 1.08 11.92V2.07996C1.08 1.5423 1.5174 1.10499 2.05497 1.10499H9V12.895ZM16.4322 4.85161C16.383 5.67466 15.9221 7.30509 14.554 8.43765C14.9693 8.52963 15.4206 8.57922 15.8968 8.57922V9.65922C14.9472 9.65922 14.0754 9.48651 13.3346 9.17997C12.6426 9.47706 11.8074 9.65922 10.8033 9.65922V8.57922C11.2652 8.57922 11.6965 8.53413 12.0963 8.4444C11.3392 7.81296 10.8919 6.97641 10.8919 6.0342H11.9718C11.9718 6.83133 12.4812 7.52074 13.3114 7.98028C13.7291 7.74088 14.0945 7.43019 14.4061 7.04869C14.9126 6.42895 15.1713 5.7418 15.284 5.24491H10.8033V4.16491H12.8101V3.08616H13.8901V4.16499H15.785C15.9638 4.16499 16.1362 4.23979 16.2582 4.3702C16.3787 4.49791 16.4427 4.67395 16.4322 4.85161Z" fill="#DA1E75"/>
<path d="M3.87304 8.64357L3.47255 9.65679H2.03516L4.4071 4.15869H5.8445L8.16163 9.65679H6.66917L6.27649 8.64357H3.87304ZM5.08264 5.54883L4.28147 7.58319H5.86808L5.08264 5.54883Z" fill="#DA1E75"/>
</svg>
