<svg width="20" height="20" viewBox="0 0 20 20" fill="none" xmlns="http://www.w3.org/2000/svg">
<g clip-path="url(#clip0_319_70)">
<path fill-rule="evenodd" clip-rule="evenodd" d="M10 9.375C8.96438 9.375 8.125 8.53562 8.125 7.5C8.125 6.46438 8.96438 5.625 10 5.625C11.0356 5.625 11.875 6.46438 11.875 7.5C11.875 8.53562 11.0356 9.375 10 9.375ZM10 4.375C8.27437 4.375 6.875 5.77375 6.875 7.5C6.875 9.22625 8.27437 10.625 10 10.625C11.7256 10.625 13.125 9.22625 13.125 7.5C13.125 5.77375 11.7256 4.375 10 4.375ZM10 18.125C8.96063 18.1306 3.75 10.1131 3.75 7.5C3.75 4.04875 6.54813 1.25 10 1.25C13.4519 1.25 16.25 4.04875 16.25 7.5C16.25 10.0781 11.0231 18.1306 10 18.125ZM10 0C5.85813 0 2.5 3.35813 2.5 7.5C2.5 10.6363 8.75313 20.0069 10 20C11.2275 20.0069 17.5 10.5938 17.5 7.5C17.5 3.35813 14.1419 0 10 0Z" fill="#DA1E75"/>
</g>
<defs>
<clipPath id="clip0_319_70">
<rect width="20" height="20" fill="white"/>
</clipPath>
</defs>
</svg>
