<svg width="22" height="22" viewBox="0 0 22 22" fill="none" xmlns="http://www.w3.org/2000/svg">
<path d="M3.2085 12.375C3.20738 13.8233 3.60996 15.2433 4.37105 16.4755C5.13213 17.7077 6.2216 18.7034 7.51715 19.3508C8.81271 19.9983 10.2631 20.2718 11.7054 20.1407C13.1478 20.0096 14.5251 19.4791 15.6827 18.6087C16.8403 17.7383 17.7324 16.5625 18.2588 15.2132C18.7853 13.864 18.9253 12.3947 18.6631 10.9703C18.4009 9.54596 17.7468 8.22285 16.7744 7.14954C15.802 6.07622 14.5497 5.29518 13.158 4.89408L14.2085 3.25966L13.4064 1.83333H8.59391L7.79183 3.25966L8.84233 4.89408C7.21999 5.36306 5.79367 6.34591 4.77774 7.69492C3.76181 9.04393 3.21114 10.6862 3.2085 12.375ZM11.0002 6.41666C12.1786 6.41666 13.3306 6.76611 14.3104 7.42082C15.2903 8.07553 16.054 9.0061 16.5049 10.0948C16.9559 11.1836 17.0739 12.3816 16.844 13.5374C16.6141 14.6932 16.0466 15.7549 15.2133 16.5882C14.3801 17.4215 13.3184 17.9889 12.1626 18.2188C11.0068 18.4487 9.80875 18.3307 8.72001 17.8798C7.63127 17.4288 6.7007 16.6651 6.04599 15.6853C5.39128 14.7054 5.04183 13.5534 5.04183 12.375C5.04377 10.7953 5.67215 9.28094 6.78913 8.16396C7.90611 7.04698 9.42051 6.4186 11.0002 6.41666Z" fill="#DA1E75"/>
</svg>
