<svg width="15" height="17" viewBox="0 0 15 17" fill="none" xmlns="http://www.w3.org/2000/svg">
<path fill-rule="evenodd" clip-rule="evenodd" d="M10.6162 4.44542C10.6162 2.81099 9.25935 1.4818 7.59094 1.4818C5.92254 1.4818 4.56573 2.81099 4.56573 4.44542C4.56573 6.07986 5.92254 7.40905 7.59094 7.40905C9.25935 7.40905 10.6162 6.07986 10.6162 4.44542ZM13.478 14.8181H12.1288C11.7113 14.8181 11.3725 14.4862 11.3725 14.0772C11.3725 13.6682 11.7113 13.3363 12.1288 13.3363H12.4532C12.9766 13.3363 13.363 12.8199 13.1649 12.345C12.249 10.1489 10.0981 8.89086 7.59094 8.89086C5.0838 8.89086 2.93287 10.1489 2.01699 12.345C1.81884 12.8199 2.20531 13.3363 2.72867 13.3363H3.05313C3.47061 13.3363 3.80943 13.6682 3.80943 14.0772C3.80943 14.4862 3.47061 14.8181 3.05313 14.8181H1.70388C0.758505 14.8181 0.0143053 13.9712 0.214725 13.0666C0.765314 10.5779 2.48439 8.74118 4.74876 7.90766C3.71565 7.0934 3.05313 5.84574 3.05313 4.44542C3.05313 1.81447 5.38556 -0.282302 8.13472 0.0311009C10.1268 0.257818 11.7771 1.81295 12.0758 3.75634C12.333 5.43153 11.6334 6.96152 10.4331 7.90766C12.6975 8.74118 14.4166 10.5779 14.9672 13.0666C15.1676 13.9712 14.4234 14.8181 13.478 14.8181ZM9.85985 14.0772C9.85985 14.4862 9.52103 14.8181 9.10355 14.8181H8.50153C8.50153 15.559 8.58019 16.2999 7.74523 16.2999C7.32699 16.2999 6.98892 15.968 6.98892 15.559V14.8181H6.07834C5.66086 14.8181 5.32203 14.4862 5.32203 14.0772C5.32203 13.6682 5.66086 13.3363 6.07834 13.3363H6.98892V12.5954C6.98892 12.1864 7.32699 11.8545 7.74523 11.8545C8.16271 11.8545 8.50153 12.1864 8.50153 12.5954V13.3363H9.10355C9.52103 13.3363 9.85985 13.6682 9.85985 14.0772Z" fill="white"/>
</svg>
