<svg width="29" height="29" viewBox="0 0 29 29" fill="none" xmlns="http://www.w3.org/2000/svg">
<path fill-rule="evenodd" clip-rule="evenodd" d="M3.64233 14.4791V22.6454C3.64233 23.3658 3.92871 24.0573 4.43893 24.5675C4.94915 25.0777 5.64062 25.3641 6.36108 25.3641C6.93927 25.3641 7.57818 25.3641 8.15637 25.3641C8.87774 25.3641 9.56921 25.0777 10.0785 24.5675C10.5887 24.0573 10.8751 23.3658 10.8751 22.6454C10.8751 21.2987 10.8751 19.4708 10.8751 18.125C10.8751 17.4036 10.5887 16.7121 10.0785 16.2028C9.56921 15.6926 8.87774 15.4062 8.15637 15.4062H5.45483V14.4791C5.45483 9.49749 9.49308 5.46014 14.4738 5.46014H14.5436C19.5244 5.46014 23.5626 9.49749 23.5626 14.4791V15.3954H20.8611C20.1406 15.3954 19.4491 15.6817 18.9389 16.191C18.4287 16.7013 18.1423 17.3927 18.1423 18.1141C18.1423 19.4653 18.1423 21.3041 18.1423 22.6562C18.1423 23.3776 18.4287 24.0691 18.9389 24.5784C19.4491 25.0886 20.1406 25.375 20.8611 25.375C21.4393 25.375 22.0782 25.375 22.6564 25.375C23.3777 25.375 24.0692 25.0886 24.5785 24.5784C25.0887 24.0691 25.3751 23.3776 25.3751 22.6562V14.4791C25.3751 8.49699 20.5258 3.64764 14.5436 3.64764H14.4738C8.49168 3.64764 3.64233 8.49699 3.64233 14.4791Z" fill="white"/>
</svg>
