<svg width="16" height="17" viewBox="0 0 16 17" fill="none" xmlns="http://www.w3.org/2000/svg">
<path d="M6.34479 9.25228C7.71402 9.25228 8.82777 8.13638 8.82777 6.76451C8.82777 5.39264 7.71402 4.27673 6.34479 4.27673C4.97585 4.27673 3.86182 5.39264 3.86182 6.76451C3.86182 8.13638 4.97557 9.25228 6.34479 9.25228ZM4.68948 5.93525H5.51714V5.10599C5.51714 4.95313 5.64073 4.82957 5.79302 4.82957H6.89657C7.04886 4.82957 7.17245 4.95313 7.17245 5.10599V5.93525H8.00011C8.1524 5.93525 8.276 6.05881 8.276 6.21167V7.31735C8.276 7.47021 8.1524 7.59376 8.00011 7.59376H7.17245V8.42302C7.17245 8.57588 7.04886 8.69944 6.89657 8.69944H5.79302C5.64073 8.69944 5.51714 8.57588 5.51714 8.42302V7.59376H4.68948C4.53719 7.59376 4.41359 7.47021 4.41359 7.31735V6.21167C4.41359 6.05881 4.53719 5.93525 4.68948 5.93525Z" fill="white"/>
<path d="M8.82777 2.06532V0.959647V0.683228H3.86182V0.959647V2.06532V2.34174H8.82777V2.06532Z" fill="white"/>
<path d="M6.06937 7.31726V8.14652H6.62114V7.31726C6.62114 7.1644 6.74474 7.04084 6.89702 7.04084H7.72468V6.488H6.89702C6.74474 6.488 6.62114 6.36444 6.62114 6.21158V5.38232H6.06937V6.21158C6.06937 6.36444 5.94577 6.488 5.79348 6.488H4.96582V7.04084H5.79348C5.94577 7.04084 6.06937 7.1644 6.06937 7.31726Z" fill="white"/>
<path d="M11.9661 1.23621H9.37965V1.78904H11.5867C11.739 1.78904 11.8626 1.9126 11.8626 2.06546V15.3336C11.8626 15.4864 11.739 15.61 11.5867 15.61H0.827171C0.674882 15.61 0.551285 15.4864 0.551285 15.3336V2.06546C0.551285 1.9126 0.674882 1.78904 0.827171 1.78904H3.31015V1.23621H0.447827C0.200633 1.23621 -0.000488281 1.43772 -0.000488281 1.68539V15.7137C-0.000488281 15.9613 0.200633 16.1628 0.447827 16.1628H11.9661C12.2133 16.1628 12.4144 15.9613 12.4144 15.7137V1.68539C12.4144 1.43772 12.2133 1.23621 11.9661 1.23621Z" fill="white"/>
<path d="M3.31036 2.34155H1.10327V15.0568H11.3111V2.34155H9.37986V2.61797C9.37986 2.77083 9.25627 2.89439 9.10398 2.89439H3.58625C3.43396 2.89439 3.31036 2.77083 3.31036 2.61797V2.34155ZM6.89689 11.4634H3.58625C3.43396 11.4634 3.31036 11.3398 3.31036 11.187C3.31036 11.0341 3.43396 10.9105 3.58625 10.9105H6.89689C7.04918 10.9105 7.17277 11.0341 7.17277 11.187C7.17277 11.3398 7.04918 11.4634 6.89689 11.4634ZM8.82809 12.2926C8.98038 12.2926 9.10398 12.4162 9.10398 12.5691C9.10398 12.7219 8.98038 12.8455 8.82809 12.8455H5.51745C5.36517 12.8455 5.24157 12.7219 5.24157 12.5691C5.24157 12.4162 5.36517 12.2926 5.51745 12.2926H8.82809ZM1.93093 10.9105H2.4827C2.63499 10.9105 2.75859 11.0341 2.75859 11.187C2.75859 11.3398 2.63499 11.4634 2.4827 11.4634H1.93093C1.77864 11.4634 1.65504 11.3398 1.65504 11.187C1.65504 11.0341 1.77864 10.9105 1.93093 10.9105ZM1.93093 12.2926H4.41391C4.5662 12.2926 4.6898 12.4162 4.6898 12.5691C4.6898 12.7219 4.5662 12.8455 4.41391 12.8455H1.93093C1.77864 12.8455 1.65504 12.7219 1.65504 12.5691C1.65504 12.4162 1.77864 12.2926 1.93093 12.2926ZM2.4827 14.2276H1.93093C1.77864 14.2276 1.65504 14.104 1.65504 13.9512C1.65504 13.7983 1.77864 13.6747 1.93093 13.6747H2.4827C2.63499 13.6747 2.75859 13.7983 2.75859 13.9512C2.75859 14.104 2.63499 14.2276 2.4827 14.2276ZM6.89689 14.2276H3.58625C3.43396 14.2276 3.31036 14.104 3.31036 13.9512C3.31036 13.7983 3.43396 13.6747 3.58625 13.6747H6.89689C7.04918 13.6747 7.17277 13.7983 7.17277 13.9512C7.17277 14.104 7.04918 14.2276 6.89689 14.2276ZM10.4834 14.2276H8.00043C7.84814 14.2276 7.72455 14.104 7.72455 13.9512C7.72455 13.7983 7.84814 13.6747 8.00043 13.6747H10.4834C10.6357 13.6747 10.7593 13.7983 10.7593 13.9512C10.7593 14.104 10.6357 14.2276 10.4834 14.2276ZM10.4834 12.8466H9.93164C9.77935 12.8466 9.65575 12.723 9.65575 12.5702C9.65575 12.4173 9.77935 12.2938 9.93164 12.2938H10.4834C10.6357 12.2938 10.7593 12.4173 10.7593 12.5702C10.7593 12.723 10.6357 12.8466 10.4834 12.8466ZM10.4834 10.9105C10.6357 10.9105 10.7593 11.0341 10.7593 11.187C10.7593 11.3398 10.6357 11.4634 10.4834 11.4634H8.00043C7.84814 11.4634 7.72455 11.3398 7.72455 11.187C7.72455 11.0341 7.84814 10.9105 8.00043 10.9105H10.4834ZM6.34511 3.72365C8.01837 3.72365 9.37986 5.08778 9.37986 6.76426C9.37986 8.44074 8.01837 9.80487 6.34511 9.80487C4.67186 9.80487 3.31036 8.44074 3.31036 6.76426C3.31036 5.08778 4.67159 3.72365 6.34511 3.72365Z" fill="white"/>
<path d="M13.793 6.48792H16.0001V8.14643H13.793V6.48792Z" fill="white"/>
<path d="M13.793 8.69946H16.0001V12.5693H13.793V8.69946Z" fill="white"/>
<path d="M15.3018 0.683228H14.4912C14.1061 0.683228 13.793 0.99724 13.793 1.38284V2.61816V5.93519H16.0001V2.61816V1.38284C16.0001 0.99724 15.6869 0.683228 15.3018 0.683228V0.683228Z" fill="white"/>
<path d="M13.793 14.5039C13.793 14.5639 13.8123 14.622 13.8481 14.6698L14.6206 15.7016V16.4389C14.6206 16.5917 14.7442 16.7153 14.8965 16.7153C15.0488 16.7153 15.1724 16.5917 15.1724 16.4389V15.7016L15.9449 14.6698C15.9807 14.622 16.0001 14.5639 16.0001 14.5039V13.1218H13.793V14.5039Z" fill="white"/>
</svg>
