<svg width="14" height="13" viewBox="0 0 14 13" fill="none" xmlns="http://www.w3.org/2000/svg">
<path d="M12.5376 11.5899L12.5375 11.5897C12.1227 9.60528 10.8329 8.15628 9.14145 7.498L8.35172 7.19064L9.00263 6.648C9.85278 5.93924 10.3541 4.78899 10.1696 3.51877L10.1696 3.51869C9.95719 2.05447 8.77913 0.893849 7.38506 0.726162L7.38497 0.726152C5.4581 0.494048 3.79196 2.04673 3.79196 4.04201C3.79196 5.09978 4.26494 6.03764 4.99749 6.64787L5.64898 7.19058L4.85876 7.49802C3.1669 8.15625 1.8776 9.60511 1.46214 11.5896L12.5376 11.5899ZM12.5376 11.5899C12.6361 12.0599 12.2659 12.5 11.8102 12.5H2.18949C1.73466 12.5 1.36403 12.0601 1.46209 11.5898L12.5376 11.5899ZM1.98023 10.6806L1.98002 10.6812C1.68729 11.4256 2.25403 12.2203 3.02747 12.2203H10.9728C11.7462 12.2203 12.313 11.4256 12.0202 10.6812L12.02 10.6806C11.1891 8.57477 9.23326 7.38115 6.99982 7.38115C4.76696 7.38115 2.81119 8.57481 1.98023 10.6806ZM3.02747 11.7203C2.59983 11.7203 2.28404 11.2743 2.44533 10.8642L6.99982 7.88115C9.04842 7.88115 10.8066 8.96762 11.5549 10.8642C11.7162 11.2743 11.4004 11.7203 10.9728 11.7203H3.02747ZM6.99982 0.982584C5.34487 0.982584 4.02792 2.3708 4.02792 4.04201C4.02792 5.71322 5.34487 7.10144 6.99982 7.10144C8.65548 7.10144 9.97173 5.71314 9.97173 4.04201C9.97173 2.37088 8.65548 0.982584 6.99982 0.982584Z" fill="white" stroke="white"/>
</svg>
