<svg width="19" height="19" viewBox="0 0 19 19" fill="none" xmlns="http://www.w3.org/2000/svg">
<path d="M19 5.38892V17.8579H0V5.38892H19ZM1.1875 9.38604H7.71856V10.5735H1.1875V16.6703H17.8125V10.5736H11.2811V9.38608H17.8125V6.57645H1.1875V9.38604Z" fill="#DA1E75"/>
<path d="M11.001 2.95124C10.6148 2.56623 10.088 2.32992 9.50005 2.32966C8.91209 2.32992 8.38528 2.56623 7.99912 2.95124C7.61415 3.3371 7.37784 3.86391 7.37754 4.45246H6.19001C6.1903 2.62364 7.67178 1.14238 9.50005 1.14212C11.3283 1.14238 12.8098 2.6236 12.8101 4.45246H11.6226C11.6223 3.86391 11.386 3.3371 11.001 2.95124Z" fill="#DA1E75"/>
<path d="M8.60934 8.92303H10.3906V11.2981H8.60934V8.92303Z" fill="#DA1E75"/>
</svg>
