<svg width="21" height="21" viewBox="0 0 21 21" fill="none" xmlns="http://www.w3.org/2000/svg">
<path d="M10.4999 2.21051C5.92178 2.21051 2.21045 5.92184 2.21045 10.5C2.21045 15.0782 5.92178 18.7895 10.4999 18.7895C15.0781 18.7895 18.7894 15.0782 18.7894 10.5C18.7894 8.04492 17.7221 5.83913 16.0262 4.32127M6.81571 14.1842L14.1841 6.81577M15.1052 13.2631C15.1052 14.2805 14.2805 15.1052 13.2631 15.1052C12.2457 15.1052 11.421 14.2805 11.421 13.2631C11.421 12.2457 12.2457 11.421 13.2631 11.421C14.2805 11.421 15.1052 12.2457 15.1052 13.2631ZM9.57887 7.73683C9.57887 8.75422 8.75416 9.57893 7.73676 9.57893C6.7194 9.57893 5.89466 8.75422 5.89466 7.73683C5.89466 6.71946 6.7194 5.89472 7.73676 5.89472C8.75416 5.89472 9.57887 6.71946 9.57887 7.73683Z" stroke="white" stroke-width="1.5" stroke-linecap="round" stroke-linejoin="round"/>
</svg>
