<svg width="18" height="18" viewBox="0 0 18 18" fill="none" xmlns="http://www.w3.org/2000/svg">
<g clip-path="url(#clip0_1462_124)">
<path d="M17.4375 3.9375H0.5625C0.413316 3.9375 0.270242 3.99676 0.164752 4.10225C0.0592632 4.20774 0 4.35082 0 4.5L0 13.5C0 13.6492 0.0592632 13.7923 0.164752 13.8977C0.270242 14.0032 0.413316 14.0625 0.5625 14.0625H17.4375C17.5867 14.0625 17.7298 14.0032 17.8352 13.8977C17.9407 13.7923 18 13.6492 18 13.5V4.5C18 4.35082 17.9407 4.20774 17.8352 4.10225C17.7298 3.99676 17.5867 3.9375 17.4375 3.9375ZM14.1131 12.9375H3.88687C3.76964 12.2476 3.44087 11.6112 2.94606 11.1164C2.45125 10.6216 1.81488 10.2929 1.125 10.1756V7.82437C1.81488 7.70714 2.45125 7.37837 2.94606 6.88356C3.44087 6.38875 3.76964 5.75238 3.88687 5.0625H14.1131C14.2304 5.75238 14.5591 6.38875 15.0539 6.88356C15.5487 7.37837 16.1851 7.70714 16.875 7.82437V10.1756C16.1851 10.2929 15.5487 10.6216 15.0539 11.1164C14.5591 11.6112 14.2304 12.2476 14.1131 12.9375ZM16.875 6.67125C16.4881 6.57025 16.1351 6.36795 15.8523 6.08519C15.5695 5.80243 15.3673 5.44942 15.2662 5.0625H16.875V6.67125ZM2.73375 5.0625C2.63275 5.44942 2.43045 5.80243 2.14769 6.08519C1.86493 6.36795 1.51192 6.57025 1.125 6.67125V5.0625H2.73375ZM1.125 11.3287C1.51192 11.4298 1.86493 11.632 2.14769 11.9148C2.43045 12.1976 2.63275 12.5506 2.73375 12.9375H1.125V11.3287ZM15.2662 12.9375C15.3673 12.5506 15.5695 12.1976 15.8523 11.9148C16.1351 11.632 16.4881 11.4298 16.875 11.3287V12.9375H15.2662Z" fill="white"/>
<path d="M4.22435 0.399373C4.16029 0.362342 4.08956 0.338312 4.0162 0.32866C3.94285 0.319007 3.86831 0.323922 3.79685 0.343123C3.65274 0.38056 3.52935 0.473609 3.45373 0.601873L2.32873 2.53125C2.25413 2.66104 2.23416 2.81514 2.27319 2.95967C2.31222 3.10419 2.40706 3.22728 2.53685 3.30187C2.66664 3.37647 2.82075 3.39644 2.96527 3.35741C3.10979 3.31838 3.23288 3.22354 3.30748 3.09375L4.15123 1.65375L7.0031 3.30187C7.13289 3.37647 7.287 3.39644 7.43152 3.35741C7.57604 3.31838 7.69913 3.22354 7.77373 3.09375C7.84832 2.96396 7.8683 2.80985 7.82927 2.66533C7.79023 2.52081 7.69539 2.39772 7.5656 2.32312L4.22435 0.399373Z" fill="white"/>
<path d="M13.7755 17.6006C13.8607 17.6511 13.9577 17.6783 14.0568 17.6793C14.1052 17.6875 14.1546 17.6875 14.203 17.6793C14.3472 17.6419 14.4705 17.5488 14.5462 17.4206L15.6712 15.4912C15.7458 15.3614 15.7657 15.2073 15.7267 15.0628C15.6877 14.9183 15.5928 14.7952 15.463 14.7206C15.3333 14.646 15.1791 14.626 15.0346 14.665C14.8901 14.7041 14.767 14.7989 14.6924 14.9287L13.8599 16.3687L11.008 14.7206C10.8783 14.646 10.7241 14.626 10.5796 14.665C10.4351 14.7041 10.312 14.7989 10.2374 14.9287C10.1628 15.0585 10.1428 15.2126 10.1819 15.3571C10.2209 15.5016 10.3158 15.6247 10.4455 15.6993L13.7755 17.6006Z" fill="white"/>
<path d="M9 5.625C8.33249 5.625 7.67997 5.82294 7.12495 6.19379C6.56994 6.56464 6.13735 7.09174 5.88191 7.70844C5.62646 8.32514 5.55963 9.00374 5.68985 9.65843C5.82008 10.3131 6.14151 10.9145 6.61352 11.3865C7.08552 11.8585 7.68689 12.1799 8.34157 12.3102C8.99626 12.4404 9.67486 12.3735 10.2916 12.1181C10.9083 11.8626 11.4354 11.4301 11.8062 10.875C12.1771 10.32 12.375 9.66751 12.375 9C12.375 8.10489 12.0194 7.24645 11.3865 6.61351C10.7536 5.98058 9.89511 5.625 9 5.625ZM9 11.25C8.55499 11.25 8.11998 11.118 7.74997 10.8708C7.37996 10.6236 7.09157 10.2722 6.92127 9.86104C6.75098 9.4499 6.70642 8.9975 6.79323 8.56105C6.88005 8.12459 7.09434 7.72368 7.40901 7.40901C7.72368 7.09434 8.12459 6.88005 8.56105 6.79323C8.99751 6.70642 9.4499 6.75097 9.86104 6.92127C10.2722 7.09157 10.6236 7.37996 10.8708 7.74997C11.118 8.11998 11.25 8.55499 11.25 9C11.25 9.59674 11.0129 10.169 10.591 10.591C10.169 11.0129 9.59674 11.25 9 11.25Z" fill="white"/>
</g>
<defs>
<clipPath id="clip0_1462_124">
<rect width="18" height="18" fill="white"/>
</clipPath>
</defs>
</svg>
