<svg width="16" height="16" viewBox="0 0 16 16" fill="none" xmlns="http://www.w3.org/2000/svg">
<path d="M12.2766 8.72084C13.2411 9.68195 13.2411 11.3007 12.2766 12.2618C12.0228 12.5147 11.769 12.6665 11.4645 12.8182C10.5508 13.1723 9.48477 13.0206 8.72335 12.2618C7.75888 11.3007 7.75888 9.68195 8.72335 8.72084C9.68782 7.75972 11.3122 7.75972 12.2766 8.72084Z" stroke="white" stroke-miterlimit="10" stroke-linecap="round" stroke-linejoin="round"/>
<path d="M13.0435 12L14.7391 13.5429C15.087 13.8857 15.087 14.4 14.7391 14.7429C14.3913 15.0857 13.8696 15.0857 13.5217 14.7429L12 13.2429" stroke="white" stroke-miterlimit="10" stroke-linecap="round" stroke-linejoin="round"/>
<path d="M10.0952 8.06193C10.381 7.57788 10.5238 6.98626 10.5238 6.39465C10.5238 5.80303 10.9524 5.31898 11.4762 5.31898V4.08196C11.4762 2.57602 10.4762 1.17765 9.14286 1.0163C8.19048 0.908733 7.33333 1.339 6.80952 2.14575C6.42857 2.03819 6.04762 2.09197 5.57143 2.46845C5.09524 2.84494 4.80952 3.54412 4.80952 4.24331V4.78114V5.58789V6.28708C4.80952 7.47032 5.38095 8.59977 6.2381 9.19139C6.2381 10.4284 5.47619 11.4503 4.42857 11.773C3.19048 12.1495 2.28571 13.2789 2 14.6773C2 14.8386 2.09524 15 2.28571 15H13" stroke="white" stroke-miterlimit="10" stroke-linecap="round" stroke-linejoin="round"/>
</svg>
