<svg width="15" height="15" viewBox="0 0 15 15" fill="none" xmlns="http://www.w3.org/2000/svg">
<path d="M1.875 6.39637L2.34201 6.356C2.32038 6.1059 2.10558 5.91723 1.85479 5.92806C1.604 5.93888 1.40625 6.14535 1.40625 6.39637H1.875ZM12.6476 7.53587L12.2066 10.0857L13.1304 10.2455L13.5714 7.69562L12.6476 7.53587ZM8.27812 13.2812H5.37272V14.2187H8.27812V13.2812ZM4.80311 12.7578L4.29551 6.88737L3.3615 6.96812L3.8691 12.8386L4.80311 12.7578ZM12.2066 10.0857C11.8899 11.9173 10.2383 13.2812 8.27812 13.2812V14.2187C10.6695 14.2187 12.7317 12.5506 13.1304 10.2455L12.2066 10.0857ZM8.28425 3.18759L7.87006 5.71545L8.79525 5.86703L9.20944 3.33918L8.28425 3.18759ZM4.49233 6.4035L5.39154 5.62865L4.77956 4.91846L3.88034 5.69333L4.49233 6.4035ZM7.0275 3.10753L7.32481 1.96138L6.41738 1.72598L6.12005 2.87213L7.0275 3.10753ZM7.77388 1.7365L7.8645 1.76561L8.15125 0.873041L8.06063 0.843934L7.77388 1.7365ZM6.57719 4.25999C6.77213 3.89498 6.92356 3.50837 7.0275 3.10753L6.12005 2.87213C6.03483 3.20067 5.91062 3.51808 5.75026 3.81827L6.57719 4.25999ZM7.8645 1.76561C8.056 1.82713 8.192 1.97505 8.23669 2.1474L9.14419 1.912C9.01575 1.41699 8.63687 1.02905 8.15125 0.873041L7.8645 1.76561ZM7.32481 1.96138C7.34675 1.877 7.40769 1.79945 7.49988 1.75502L7.09288 0.910466C6.76038 1.07068 6.51063 1.36642 6.41738 1.72598L7.32481 1.96138ZM7.49988 1.75502C7.58406 1.71444 7.68319 1.70738 7.77388 1.7365L8.06063 0.843934C7.74206 0.74159 7.3945 0.765122 7.09288 0.910466L7.49988 1.75502ZM8.84606 6.86512H12.0843V5.92762H8.84606V6.86512ZM2.94926 13.3788L2.34201 6.356L1.40799 6.43675L2.01524 13.4596L2.94926 13.3788ZM2.34375 13.4454V6.39637H1.40625V13.4454H2.34375ZM2.01524 13.4596C2.007 13.3642 2.08216 13.2812 2.17919 13.2812V14.2187C2.63293 14.2187 2.98826 13.8299 2.94926 13.3788L2.01524 13.4596ZM9.20944 3.33918C9.28725 2.8641 9.26506 2.37798 9.14419 1.912L8.23669 2.1474C8.32481 2.48702 8.341 2.84132 8.28425 3.18759L9.20944 3.33918ZM5.37272 13.2812C5.07652 13.2812 4.82876 13.0544 4.80311 12.7578L3.8691 12.8386C3.93657 13.6189 4.58919 14.2187 5.37272 14.2187V13.2812ZM5.39154 5.62865C5.81645 5.2625 6.2745 4.82667 6.57719 4.25999L5.75026 3.81827C5.53378 4.22354 5.18906 4.56558 4.77956 4.91846L5.39154 5.62865ZM13.5714 7.69562C13.7309 6.77281 13.0213 5.92762 12.0843 5.92762V6.86512C12.4384 6.86512 12.7082 7.18493 12.6476 7.53587L13.5714 7.69562ZM2.17919 13.2812C2.27058 13.2812 2.34375 13.3552 2.34375 13.4454H1.40625C1.40625 13.8721 1.75181 14.2187 2.17919 14.2187V13.2812ZM7.87006 5.71545C7.7715 6.31725 8.23537 6.86512 8.84606 6.86512V5.92762C8.81488 5.92762 8.78994 5.89938 8.79525 5.86703L7.87006 5.71545ZM4.29551 6.88737C4.27962 6.70362 4.35297 6.52362 4.49233 6.4035L3.88034 5.69333C3.51264 6.01019 3.31968 6.48456 3.3615 6.96812L4.29551 6.88737Z" fill="white"/>
</svg>
