<svg width="21" height="21" viewBox="0 0 21 21" fill="none" xmlns="http://www.w3.org/2000/svg">
<path fill-rule="evenodd" clip-rule="evenodd" d="M21 7.4951C21.0133 7.62783 20.9987 7.76186 20.957 7.88858C20.9153 8.0153 20.8476 8.13188 20.7581 8.2308C20.6686 8.32972 20.5594 8.40879 20.4374 8.4629C20.3155 8.51701 20.1836 8.54498 20.0502 8.54498C19.9168 8.54498 19.785 8.51701 19.663 8.4629C19.5411 8.40879 19.4319 8.32972 19.3424 8.2308C19.2529 8.13188 19.1851 8.0153 19.1435 7.88858C19.1018 7.76186 19.0871 7.62783 19.1005 7.4951V3.50987L10.5478 12.0626C10.4403 12.1704 10.3127 12.256 10.1722 12.3145C10.0317 12.373 9.88105 12.4032 9.72886 12.4035C9.57667 12.4037 9.42585 12.374 9.28514 12.316C9.14444 12.258 9.01658 12.1729 8.90878 12.0655C8.80098 11.958 8.71535 11.8304 8.65686 11.6899C8.59837 11.5494 8.56822 11.3988 8.56795 11.2466C8.56769 11.0944 8.59735 10.9436 8.65534 10.8029C8.71334 10.6622 8.79844 10.5343 8.90587 10.4265L17.43 1.90432H13.5068C13.3727 1.91903 13.2369 1.90532 13.1085 1.86406C12.98 1.8228 12.8617 1.75493 12.7612 1.66487C12.6607 1.5748 12.5803 1.46457 12.5253 1.34136C12.4702 1.21815 12.4418 1.08471 12.4418 0.949773C12.4418 0.814833 12.4702 0.681413 12.5253 0.558202C12.5803 0.434991 12.6607 0.324758 12.7612 0.234694C12.8617 0.14463 12.98 0.076761 13.1085 0.0355006C13.2369 -0.0057597 13.3727 -0.0194879 13.5068 -0.00477215H19.7877C19.8068 -0.00477215 19.8259 -0.00477215 19.845 -0.00477215H19.9118C19.9404 -0.00477215 19.9595 0.00668962 19.9881 0.00859871C20.0168 0.0105078 20.0264 -0.00477215 20.0455 -0.00477215C20.2642 0.00108891 20.4724 0.0901968 20.6277 0.244366C20.6522 0.258871 20.6747 0.276529 20.6946 0.296873C20.7137 0.317873 20.7327 0.341736 20.7518 0.364645C20.9033 0.521598 20.9917 0.728906 21 0.946918C21 0.967919 20.9904 0.986044 20.9904 1.00704C20.9904 1.02804 21 1.05764 21 1.08532V7.49032V7.4951ZM1.90909 19.0909H17.1818V10.5H19.0909V19.0909C19.0909 19.5972 18.8897 20.0828 18.5317 20.4408C18.1737 20.7989 17.6881 21 17.1818 21H1.90909C1.40277 21 0.917211 20.7989 0.559187 20.4408C0.201163 20.0828 0 19.5972 0 19.0909V3.81819C0 3.31186 0.201163 2.82628 0.559187 2.46825C0.917211 2.11023 1.40277 1.9091 1.90909 1.9091H10.5V3.81819H1.90909V19.0909Z" fill="white"/>
</svg>
