<svg width="19" height="19" viewBox="0 0 19 19" fill="none" xmlns="http://www.w3.org/2000/svg">
<g clip-path="url(#clip0_1462_145)">
<path d="M3.95825 11.0042V17.4167C3.95825 17.6267 4.04166 17.828 4.19013 17.9765C4.33859 18.1249 4.53996 18.2084 4.74992 18.2084H7.91659C8.12655 18.2084 8.32791 18.1249 8.47638 17.9765C8.62484 17.828 8.70825 17.6267 8.70825 17.4167V11.5726L12.3127 13.3792C12.4337 13.4397 12.5682 13.4681 12.7034 13.4618C12.8385 13.4555 12.9698 13.4147 13.0847 13.3433C13.1996 13.2718 13.2943 13.1721 13.3597 13.0537C13.425 12.9352 13.459 12.802 13.4583 12.6667V1.58336C13.4583 1.4484 13.4239 1.31566 13.3582 1.19776C13.2925 1.07985 13.1978 0.980696 13.083 0.909702C12.9682 0.838709 12.8372 0.798238 12.7024 0.792132C12.5676 0.786026 12.4334 0.814488 12.3127 0.874815L7.72975 3.16669H4.74992C3.76829 3.1657 2.82131 3.5295 2.09282 4.18744C1.36433 4.84539 0.906299 5.75056 0.807647 6.72721C0.708994 7.70387 0.976758 8.68235 1.55896 9.47269C2.14116 10.263 2.99625 10.8089 3.95825 11.0042ZM7.12492 16.625H5.54159V11.0834H7.12492V16.625ZM4.74992 4.75002H7.91659C8.03939 4.75014 8.16055 4.72168 8.27046 4.6669L11.8749 2.86427V11.3858L8.27125 9.58315C8.26413 9.58315 8.25542 9.58315 8.24829 9.5784C8.14662 9.5286 8.03531 9.50158 7.92213 9.49923H4.74992C4.12764 9.48787 3.53469 9.23269 3.09864 8.78861C2.66259 8.34452 2.41828 7.74701 2.41828 7.12463C2.41828 6.50225 2.66259 5.90474 3.09864 5.46065C3.53469 5.01656 4.12764 4.76139 4.74992 4.75002ZM18.2083 7.12502C18.2083 7.96488 17.8746 8.77033 17.2808 9.36419C16.6869 9.95806 15.8814 10.2917 15.0416 10.2917C14.8316 10.2917 14.6303 10.2083 14.4818 10.0598C14.3333 9.91135 14.2499 9.70999 14.2499 9.50002C14.2499 9.29006 14.3333 9.0887 14.4818 8.94023C14.6303 8.79176 14.8316 8.70836 15.0416 8.70836C15.4615 8.70836 15.8642 8.54154 16.1612 8.24461C16.4581 7.94768 16.6249 7.54495 16.6249 7.12502C16.6249 6.7051 16.4581 6.30237 16.1612 6.00544C15.8642 5.7085 15.4615 5.54169 15.0416 5.54169C14.8316 5.54169 14.6303 5.45828 14.4818 5.30982C14.3333 5.16135 14.2499 4.95999 14.2499 4.75002C14.2499 4.54006 14.3333 4.3387 14.4818 4.19023C14.6303 4.04176 14.8316 3.95836 15.0416 3.95836C15.8814 3.95836 16.6869 4.29199 17.2808 4.88585C17.8746 5.47972 18.2083 6.28517 18.2083 7.12502Z" fill="white"/>
</g>
<defs>
<clipPath id="clip0_1462_145">
<rect width="19" height="19" fill="white"/>
</clipPath>
</defs>
</svg>
