<svg width="18" height="18" viewBox="0 0 18 18" fill="none" xmlns="http://www.w3.org/2000/svg">
<path d="M15.8315 6.26356C15.832 6.2609 15.8342 6.25926 15.8344 6.25659C15.834 6.25926 15.832 6.2611 15.8315 6.26356Z" fill="#FDF5F2"/>
<path d="M1.28582 3.21436V5.78586H1.28564V7.07152H1.28582V14.7859H8.35732V13.5H2.57148V7.07152H15.4287V9.57131H16.7143V3.21436H1.28582ZM2.57148 5.78568V4.50002H15.4287V5.78568H2.57148Z" fill="white"/>
<path d="M3.21436 10.2856H7.07152V11.5713H3.21436V10.2856ZM14.4645 10.2856H13.1235L13.9548 9.45437L13.0458 8.54541L10.6626 10.9285L13.0456 13.3115L13.9546 12.4026L13.1233 11.5713H14.4644C14.9961 11.5713 15.4287 12.0039 15.4287 12.5356C15.4287 13.0674 14.9963 13.5 14.4645 13.5H9.64303V14.7856H14.4645C15.705 14.7856 16.7145 13.7761 16.7145 12.5356C16.7145 11.2952 15.705 10.2856 14.4645 10.2856Z" fill="white"/>
</svg>
