<svg width="20" height="20" viewBox="0 0 20 20" fill="none" xmlns="http://www.w3.org/2000/svg">
<path d="M9.431 3.00985C9.619 2.70336 9.713 2.55011 9.83392 2.49782C9.93942 2.45216 10.0592 2.45216 10.1648 2.49782C10.2856 2.55011 10.3796 2.70336 10.5676 3.00985L12.2218 5.70677C12.2926 5.82235 12.3281 5.88013 12.3764 5.92215C12.4192 5.95934 12.4691 5.98741 12.5231 6.00464C12.5842 6.0241 12.6519 6.02436 12.7875 6.02488L16.0418 6.0372C16.4263 6.03865 16.6186 6.03938 16.7283 6.12045C16.8239 6.19114 16.8848 6.29934 16.8955 6.41779C16.9079 6.55362 16.8088 6.71833 16.6103 7.04776L15.0398 9.65608C14.9644 9.78108 14.9268 9.84358 14.9121 9.91033C14.8991 9.96941 14.8991 10.0306 14.9121 10.0896C14.9268 10.1563 14.9644 10.2188 15.0398 10.3439L16.6103 12.9522C16.8088 13.2816 16.9079 13.4463 16.8955 13.5822C16.8848 13.7006 16.8239 13.8088 16.7283 13.8795C16.6186 13.9606 16.4263 13.9613 16.0418 13.9627L12.7875 13.9751C12.6519 13.9756 12.5842 13.9758 12.5231 13.9953C12.4691 14.0125 12.4192 14.0406 12.3764 14.0778C12.3281 14.1198 12.2926 14.1776 12.2218 14.2932L10.5676 16.9901C10.3796 17.2966 10.2856 17.4498 10.1648 17.5022C10.0592 17.5477 9.93942 17.5477 9.83392 17.5022C9.713 17.4498 9.619 17.2966 9.431 16.9901L7.77689 14.2932C7.706 14.1776 7.67056 14.1198 7.62222 14.0778C7.57944 14.0406 7.52952 14.0125 7.47551 13.9953C7.4145 13.9758 7.3467 13.9756 7.21112 13.9751L3.95687 13.9627C3.57233 13.9613 3.38006 13.9606 3.27038 13.8795C3.17473 13.8088 3.11385 13.7006 3.10308 13.5822C3.09073 13.4463 3.18991 13.2816 3.38828 12.9522L4.9589 10.3439C5.03417 10.2188 5.07181 10.1563 5.08651 10.0896C5.09952 10.0306 5.09952 9.96941 5.08651 9.91033C5.07181 9.84358 5.03417 9.78108 4.9589 9.65608L3.38828 7.04775C3.18991 6.71833 3.09073 6.55362 3.10308 6.41779C3.11385 6.29934 3.17473 6.19114 3.27038 6.12045C3.38006 6.03938 3.57233 6.03865 3.95687 6.0372L7.21112 6.02488C7.3467 6.02436 7.4145 6.0241 7.47551 6.00464C7.52952 5.98741 7.57944 5.95934 7.62222 5.92215C7.67056 5.88013 7.706 5.82235 7.77689 5.70677L9.431 3.00985Z" stroke="#DA1E75" stroke-width="2" stroke-linecap="round" stroke-linejoin="round"/>
</svg>
