<svg width="14" height="13" viewBox="0 0 14 13" fill="none" xmlns="http://www.w3.org/2000/svg">
<g opacity="0.5" clip-path="url(#clip0_771_1050)">
<path d="M13.125 3.25H10.5V2.4375C10.4992 1.79125 10.2224 1.17168 9.7303 0.714719C9.23819 0.257754 8.57096 0.000716856 7.875 0L6.125 0C5.42904 0.000716856 4.76181 0.257754 4.2697 0.714719C3.77758 1.17168 3.50077 1.79125 3.5 2.4375V3.25H0.875C0.642936 3.25 0.420376 3.3356 0.256282 3.48798C0.0921872 3.64035 0 3.84701 0 4.0625C0 4.27799 0.0921872 4.48465 0.256282 4.63702C0.420376 4.7894 0.642936 4.875 0.875 4.875H1.75V12.1875C1.74993 12.2942 1.77252 12.3999 1.81647 12.4985C1.86042 12.5971 1.92487 12.6867 2.00614 12.7622C2.0874 12.8376 2.18389 12.8975 2.29007 12.9383C2.39626 12.9791 2.51007 13.0001 2.625 13H11.375C11.4899 13.0001 11.6037 12.9791 11.7099 12.9383C11.8161 12.8975 11.9126 12.8376 11.9939 12.7622C12.0751 12.6867 12.1396 12.5971 12.1835 12.4985C12.2275 12.3999 12.2501 12.2942 12.25 12.1875V4.875H13.125C13.3571 4.875 13.5796 4.7894 13.7437 4.63702C13.9078 4.48465 14 4.27799 14 4.0625C14 3.84701 13.9078 3.64035 13.7437 3.48798C13.5796 3.3356 13.3571 3.25 13.125 3.25ZM5.25 2.4375C5.2503 2.2221 5.34258 2.0156 5.50661 1.86328C5.67064 1.71097 5.89303 1.62528 6.125 1.625H7.875C8.10697 1.62528 8.32936 1.71097 8.49339 1.86328C8.65741 2.0156 8.7497 2.2221 8.75 2.4375V3.25H5.25V2.4375ZM10.5 11.375H3.5V4.875H10.5V11.375Z" fill="black"/>
</g>
<defs>
<clipPath id="clip0_771_1050">
<rect width="14" height="13" fill="white"/>
</clipPath>
</defs>
</svg>
