<svg width="19" height="20" viewBox="0 0 19 20" fill="none" xmlns="http://www.w3.org/2000/svg">
<path d="M11.1458 1.25C11.2715 1.25 11.394 1.292 11.4955 1.36995C11.5971 1.4479 11.6726 1.55778 11.711 1.68375L12.3642 3.82C12.6385 3.96125 12.9009 4.12 13.1515 4.29875L15.2367 3.82625C15.3597 3.79862 15.4878 3.81278 15.6026 3.86669C15.7174 3.92061 15.813 4.01149 15.8756 4.12625L17.5215 7.125C17.5843 7.2397 17.6109 7.37244 17.5975 7.50409C17.5841 7.63574 17.5312 7.75949 17.4467 7.8575L16.0157 9.52C16.0366 9.83879 16.0366 10.1587 16.0157 10.4775L17.4467 12.1425C17.5312 12.2405 17.5841 12.3643 17.5975 12.4959C17.6109 12.6276 17.5843 12.7603 17.5215 12.875L15.8756 15.875C15.8128 15.9895 15.7172 16.0802 15.6024 16.1338C15.4876 16.1875 15.3595 16.2015 15.2367 16.1737L13.1515 15.7013C12.9021 15.8787 12.6385 16.0388 12.3654 16.18L11.711 18.3162C11.6726 18.4422 11.5971 18.5521 11.4955 18.63C11.394 18.708 11.2715 18.75 11.1458 18.75H7.85404C7.72833 18.75 7.60587 18.708 7.50429 18.63C7.40271 18.5521 7.32726 18.4422 7.28879 18.3162L6.63685 16.1812C6.36328 16.0404 6.0994 15.8796 5.84716 15.7L3.7631 16.1737C3.64015 16.2014 3.51205 16.1872 3.39724 16.1333C3.28242 16.0794 3.18683 15.9885 3.12423 15.8738L1.47835 12.875C1.4155 12.7603 1.38888 12.6276 1.40233 12.4959C1.41577 12.3643 1.46859 12.2405 1.55316 12.1425L2.9841 10.4775C2.96338 10.1595 2.96338 9.84046 2.9841 9.5225L1.55316 7.8575C1.46859 7.75949 1.41577 7.63574 1.40233 7.50409C1.38888 7.37244 1.4155 7.2397 1.47835 7.125L3.12423 4.125C3.187 4.01047 3.28267 3.91984 3.39747 3.86616C3.51227 3.81248 3.64028 3.79851 3.7631 3.82625L5.84716 4.3C6.09891 4.12125 6.36254 3.96 6.63685 3.81875L7.28998 1.68375C7.32832 1.55818 7.40342 1.4486 7.50452 1.37069C7.60562 1.29278 7.72755 1.25053 7.85285 1.25H11.1446H11.1458ZM10.7112 2.5H8.28866L7.61417 4.70875L7.15935 4.9425C6.93577 5.05767 6.71993 5.18881 6.51335 5.335L6.09298 5.635L3.93648 5.145L2.72523 7.355L4.20366 9.0775L4.16804 9.6075C4.15098 9.86886 4.15098 10.1311 4.16804 10.3925L4.20366 10.9225L2.72285 12.645L3.93529 14.855L6.09179 14.3663L6.51217 14.665C6.71874 14.8112 6.93458 14.9423 7.15816 15.0575L7.61298 15.2913L8.28866 17.5H10.7135L11.3904 15.29L11.844 15.0575C12.0674 14.9426 12.2828 14.8114 12.4889 14.665L12.908 14.3663L15.0657 14.855L16.277 12.645L14.7974 10.9225L14.833 10.3925C14.8501 10.1307 14.8501 9.86802 14.833 9.60625L14.7974 9.07625L16.2782 7.355L15.0657 5.145L12.908 5.6325L12.4889 5.335C12.2829 5.18852 12.0674 5.05736 11.844 4.9425L11.3904 4.71L10.7124 2.5H10.7112ZM9.49992 6.25C10.4447 6.25 11.3509 6.64509 12.019 7.34835C12.6871 8.05161 13.0624 9.00544 13.0624 10C13.0624 10.9946 12.6871 11.9484 12.019 12.6517C11.3509 13.3549 10.4447 13.75 9.49992 13.75C8.55508 13.75 7.64895 13.3549 6.98085 12.6517C6.31275 11.9484 5.93742 10.9946 5.93742 10C5.93742 9.00544 6.31275 8.05161 6.98085 7.34835C7.64895 6.64509 8.55508 6.25 9.49992 6.25ZM9.49992 7.5C8.87003 7.5 8.26593 7.76339 7.82054 8.23223C7.37514 8.70107 7.12492 9.33696 7.12492 10C7.12492 10.663 7.37514 11.2989 7.82054 11.7678C8.26593 12.2366 8.87003 12.5 9.49992 12.5C10.1298 12.5 10.7339 12.2366 11.1793 11.7678C11.6247 11.2989 11.8749 10.663 11.8749 10C11.8749 9.33696 11.6247 8.70107 11.1793 8.23223C10.7339 7.76339 10.1298 7.5 9.49992 7.5Z" fill="white"/>
</svg>
