<svg width="17" height="17" viewBox="0 0 17 17" fill="none" xmlns="http://www.w3.org/2000/svg">
<path fill-rule="evenodd" clip-rule="evenodd" d="M9.77721 3.7778C9.77721 2.47379 10.8391 1.41669 12.1491 1.41669C13.459 1.41669 14.5209 2.47379 14.5209 3.7778C14.5209 5.0818 13.459 6.13891 12.1491 6.13891C11.4876 6.13891 10.8899 5.86924 10.4601 5.4354L7.1767 7.67092C7.20702 7.82179 7.22296 7.97762 7.22296 8.13679C7.22296 8.452 7.16062 8.75332 7.04771 9.02872L10.648 11.3941C11.0566 11.0614 11.5794 10.8611 12.1491 10.8611C13.459 10.8611 14.5209 11.9182 14.5209 13.2223C14.5209 14.5262 13.459 15.5834 12.1491 15.5834C10.8391 15.5834 9.77721 14.5262 9.77721 13.2223C9.77721 12.8807 9.85031 12.5556 9.9817 12.262L6.41055 9.91577C5.99397 10.2778 5.4483 10.4979 4.85109 10.4979C3.54116 10.4979 2.47925 9.44076 2.47925 8.13679C2.47925 6.83277 3.54116 5.77566 4.85109 5.77566C5.60434 5.77566 6.27487 6.12516 6.70903 6.66911L9.89118 4.50248C9.81716 4.27381 9.77721 4.03015 9.77721 3.7778Z" fill="white"/>
</svg>
