<svg width="32" height="32" viewBox="0 0 32 32" fill="none" xmlns="http://www.w3.org/2000/svg">
<path d="M25.3333 18.6667C23.2103 18.6667 21.3376 19.6828 20.1159 21.2337L13.0814 17.7158C13.2292 17.1649 13.3333 16.597 13.3333 16C13.3333 15.4028 13.229 14.8348 13.0812 14.2837L20.1159 10.7663C21.3376 12.3174 23.2103 13.3333 25.3333 13.3333C29.0091 13.3333 32 10.3438 32 6.66667C32 2.98958 29.0091 0 25.3333 0C21.6576 0 18.6667 2.98958 18.6667 6.66667C18.6667 7.26383 18.771 7.83187 18.9188 8.38298L11.8841 11.9004C10.6624 10.3493 8.78971 9.33333 6.66667 9.33333C2.99089 9.33333 0 12.3229 0 16C0 19.6771 2.99089 22.6667 6.66667 22.6667C8.78988 22.6667 10.6628 21.6507 11.8844 20.0993L18.9188 23.6169C18.7708 24.168 18.6667 24.7362 18.6667 25.3333C18.6667 29.0104 21.6576 32 25.3333 32C29.0091 32 32 29.0104 32 25.3333C32 21.6562 29.0091 18.6667 25.3333 18.6667ZM25.3333 2.66667C27.5391 2.66667 29.3333 4.46094 29.3333 6.66667C29.3333 8.8724 27.5391 10.6667 25.3333 10.6667C23.1276 10.6667 21.3333 8.8724 21.3333 6.66667C21.3333 4.46094 23.1276 2.66667 25.3333 2.66667ZM6.66667 20C4.46094 20 2.66667 18.2057 2.66667 16C2.66667 13.7943 4.46094 12 6.66667 12C8.8724 12 10.6667 13.7943 10.6667 16C10.6667 18.2057 8.8724 20 6.66667 20ZM25.3333 29.3333C23.1276 29.3333 21.3333 27.5391 21.3333 25.3333C21.3333 23.1276 23.1276 21.3333 25.3333 21.3333C27.5391 21.3333 29.3333 23.1276 29.3333 25.3333C29.3333 27.5391 27.5391 29.3333 25.3333 29.3333Z" fill="#DA1E75"/>
</svg>
