<svg width="14" height="14" viewBox="0 0 14 14" fill="none" xmlns="http://www.w3.org/2000/svg">
<g clip-path="url(#clip0_1462_73)">
<path d="M0.608685 7.30436H1.06522V6.3128C0.533846 6.12434 0.152183 5.6169 0.152183 5.02176C0.152183 4.76965 0.356576 4.56523 0.608713 4.56523C1.23942 4.56523 1.77159 4.13659 1.93002 3.55537C1.42402 3.35396 1.06524 2.85958 1.06524 2.28263C1.06524 2.03052 1.26964 1.8261 1.52178 1.8261C2.27696 1.8261 2.89134 1.21171 2.89134 0.456531C2.89134 0.204422 3.09574 0 3.34787 0H10.6522C10.9043 0 11.1087 0.204395 11.1087 0.456531C11.1087 1.21171 11.7231 1.8261 12.4783 1.8261C12.7304 1.8261 12.9348 2.03049 12.9348 2.28263C12.9348 2.85958 12.5761 3.35396 12.0701 3.55537C12.2285 4.13659 12.7607 4.56523 13.3914 4.56523C13.6435 4.56523 13.8479 4.76963 13.8479 5.02176C13.8479 5.61693 13.4662 6.12434 12.9349 6.3128V7.30436H13.3913C13.6434 7.30436 13.8478 7.50876 13.8478 7.76089V13.5435C13.8478 13.7956 13.6434 14 13.3913 14C13.2172 14 0.677783 14 0.608685 14C0.356576 14 0.152155 13.7956 0.152155 13.5435V7.76089C0.152155 7.50879 0.356548 7.30436 0.608685 7.30436ZM10.2415 0.913062H3.75847C3.58907 1.74415 2.96662 2.41257 2.16129 2.64797C2.23758 2.70523 2.3323 2.73916 2.43478 2.73916H11.5652C11.6677 2.73916 11.7624 2.70523 11.8387 2.64797C11.0334 2.41257 10.4109 1.74415 10.2415 0.913062ZM11.1545 3.6522H2.84543C2.67604 4.48328 2.05358 5.1517 1.24826 5.3871C1.32454 5.44436 1.41926 5.47829 1.52175 5.47829H12.4783C12.5807 5.47829 12.6754 5.44436 12.7517 5.3871C11.9464 5.1517 11.3239 4.48328 11.1545 3.6522ZM1.97825 6.39133V7.30436H12.0217V6.39133H1.97825ZM9.28259 11.4131V13.087H12.9348V10.9565H9.23665C9.26673 11.1041 9.28259 11.2568 9.28259 11.4131ZM5.63042 13.087H8.36955V11.4131C8.36955 10.6584 7.75508 10.0435 6.99999 10.0435C6.23904 10.0435 5.63042 10.6648 5.63042 11.4131V13.087ZM1.06522 13.087H4.71739V11.4131C4.71739 11.2568 4.73324 11.1041 4.76332 10.9566H1.06522V13.087ZM1.06522 10.0435H5.17515C5.592 9.48946 6.25481 9.13046 6.99999 9.13046C7.74516 9.13046 8.40797 9.48946 8.82483 10.0435H12.9348V8.2174H1.06519V10.0435H1.06522Z" fill="white"/>
</g>
<defs>
<clipPath id="clip0_1462_73">
<rect width="14" height="14" fill="white" transform="matrix(-1 0 0 1 14 0)"/>
</clipPath>
</defs>
</svg>
