<svg width="17" height="18" viewBox="0 0 17 18" fill="none" xmlns="http://www.w3.org/2000/svg">
<path d="M1 15.2222V3.84444C1 2.8488 1 2.35097 1.20437 1.97068C1.38412 1.63617 1.67096 1.3642 2.02377 1.19377C2.42485 1 2.94991 1 4 1H13C14.0501 1 14.5752 1 14.9763 1.19377C15.329 1.3642 15.6159 1.63617 15.7956 1.97068C16 2.35097 16 2.8488 16 3.84444V13.4444H2.875C1.83947 13.4444 1 14.2404 1 15.2222ZM1 15.2222C1 16.2041 1.83947 17 2.875 17H16M5.6875 4.55556H11.3125M5.6875 8.11111H11.3125M15.0625 13.4444V17" stroke="#DA1E75" stroke-width="2" stroke-linecap="round" stroke-linejoin="round"/>
</svg>
