<svg width="18" height="17" viewBox="0 0 18 17" fill="none" xmlns="http://www.w3.org/2000/svg">
<path d="M15.75 7.19232H14.25C13.4216 7.19232 12.75 7.82659 12.75 8.60899V10.0257C12.75 10.8081 13.4216 11.4423 14.25 11.4423C15.0784 11.4423 15.75 10.8081 15.75 10.0257V7.19232ZM15.75 7.19232C15.75 3.67151 12.7279 0.817322 9 0.817322C5.27208 0.817322 2.25 3.67151 2.25 7.19232M2.25 7.19232V10.0257C2.25 10.8081 2.92157 11.4423 3.75 11.4423C4.57843 11.4423 5.25 10.8081 5.25 10.0257V8.60899C5.25 7.82659 4.57843 7.19232 3.75 7.19232H2.25Z" stroke="white" stroke-linecap="round" stroke-linejoin="round"/>
<path d="M15.75 8.60901V11.4423C15.75 12.859 15.25 13.5673 14.25 13.5673C13.25 13.5673 12 13.5673 10.5 13.5673" stroke="white" stroke-linecap="round" stroke-linejoin="round"/>
</svg>
