<svg width="16" height="16" viewBox="0 0 16 16" fill="none" xmlns="http://www.w3.org/2000/svg">
<g clip-path="url(#clip0_1462_168)">
<path d="M0.833252 6.99998C0.833252 7.27611 1.05711 7.49998 1.33325 7.49998C1.60939 7.49998 1.83325 7.27611 1.83325 6.99998H0.833252ZM2.04893 10.4176C1.94325 10.1624 1.65077 10.0413 1.39565 10.147C1.14053 10.2526 1.01937 10.5451 1.12505 10.8002L2.04893 10.4176ZM9.15465 14.5131L9.51605 13.9026L8.65545 13.3932L8.29405 14.0038L9.15465 14.5131ZM6.48378 13.9026L6.84519 14.5131L7.70572 14.0038L7.34432 13.3932L6.48378 13.9026ZM8.29405 14.0038C8.16559 14.2208 7.83425 14.2208 7.70572 14.0038L6.84519 14.5131C7.36092 15.3844 8.63892 15.3844 9.15465 14.5131L8.29405 14.0038ZM6.99992 1.83331H8.99992V0.833313H6.99992V1.83331ZM14.1666 6.99998V7.66665H15.1666V6.99998H14.1666ZM5.20158 12.161C4.36462 12.1466 3.92607 12.0934 3.58231 11.951L3.19963 12.8748C3.73628 13.0971 4.34751 13.1464 5.18436 13.1608L5.20158 12.161ZM1.12505 10.8002C1.51411 11.7395 2.26036 12.4858 3.19963 12.8748L3.58231 11.951C2.88807 11.6634 2.33649 11.1118 2.04893 10.4176L1.12505 10.8002ZM14.1666 7.66665C14.1666 8.45005 14.1663 9.01258 14.1361 9.45645C14.1061 9.89585 14.0483 10.1824 13.9509 10.4176L14.8748 10.8002C15.0311 10.4229 15.1003 10.0148 15.1337 9.52451C15.1669 9.03871 15.1666 8.43638 15.1666 7.66665H14.1666ZM10.8155 13.1608C11.6523 13.1464 12.2636 13.0971 12.8002 12.8748L12.4175 11.951C12.0738 12.0934 11.6352 12.1466 10.7983 12.161L10.8155 13.1608ZM13.9509 10.4176C13.6633 11.1118 13.1118 11.6634 12.4175 11.951L12.8002 12.8748C13.7395 12.4858 14.4857 11.7395 14.8748 10.8002L13.9509 10.4176ZM8.99992 1.83331C10.1007 1.83331 10.8913 1.83384 11.5079 1.89247C12.1171 1.95039 12.5047 2.06147 12.8137 2.25083L13.3362 1.39819C12.8436 1.09636 12.2849 0.96184 11.6025 0.89696C10.9276 0.832786 10.0814 0.833313 8.99992 0.833313V1.83331ZM15.1666 6.99998C15.1666 5.91852 15.1671 5.07231 15.1029 4.39739C15.0381 3.71502 14.9035 3.15628 14.6017 2.66373L13.7491 3.18623C13.9385 3.49525 14.0495 3.88287 14.1075 4.49204C14.1661 5.10865 14.1666 5.89915 14.1666 6.99998H15.1666ZM12.8137 2.25083C13.1949 2.48446 13.5155 2.80499 13.7491 3.18623L14.6017 2.66373C14.2857 2.14794 13.852 1.71427 13.3362 1.39819L12.8137 2.25083ZM6.99992 0.833313C5.91846 0.833313 5.07225 0.832786 4.39733 0.89696C3.71496 0.96184 3.15622 1.09636 2.66367 1.39819L3.18617 2.25083C3.49519 2.06147 3.88281 1.95039 4.49198 1.89247C5.10858 1.83384 5.89909 1.83331 6.99992 1.83331V0.833313ZM1.83325 6.99998C1.83325 5.89915 1.83378 5.10865 1.89241 4.49204C1.95033 3.88287 2.06141 3.49525 2.25077 3.18623L1.39813 2.66373C1.0963 3.15628 0.961779 3.71502 0.896899 4.39739C0.832725 5.07231 0.833252 5.91852 0.833252 6.99998H1.83325ZM2.66367 1.39819C2.14788 1.71427 1.71421 2.14794 1.39813 2.66373L2.25077 3.18623C2.4844 2.80499 2.80493 2.48446 3.18617 2.25083L2.66367 1.39819ZM7.34432 13.3932C7.20898 13.1645 7.09019 12.9627 6.97465 12.8042C6.85292 12.6372 6.71338 12.4869 6.51982 12.3743L6.01706 13.2388C6.04867 13.2571 6.09173 13.2906 6.16649 13.3932C6.2474 13.5042 6.33882 13.6576 6.48378 13.9026L7.34432 13.3932ZM5.18436 13.1608C5.47709 13.1659 5.6625 13.1696 5.80384 13.1852C5.93591 13.1999 5.9871 13.2213 6.01706 13.2388L6.51982 12.3743C6.32465 12.2608 6.12156 12.2143 5.9139 12.1913C5.71551 12.1694 5.47575 12.1658 5.20158 12.161L5.18436 13.1608ZM9.51605 13.9026C9.66098 13.6576 9.75239 13.5042 9.83332 13.3932C9.90805 13.2906 9.95112 13.2571 9.98272 13.2388L9.47999 12.3743C9.28645 12.4869 9.14685 12.6372 9.02518 12.8042C8.90965 12.9627 8.79085 13.1645 8.65545 13.3932L9.51605 13.9026ZM10.7983 12.161C10.5241 12.1658 10.2843 12.1694 10.0859 12.1913C9.87825 12.2143 9.67519 12.2608 9.47999 12.3743L9.98272 13.2388C10.0127 13.2213 10.0639 13.1999 10.196 13.1852C10.3373 13.1696 10.5227 13.1659 10.8155 13.1608L10.7983 12.161Z" fill="white"/>
<path d="M6 7.38667L7.33333 8.66667L10 6" stroke="white" stroke-width="1.5" stroke-linecap="round" stroke-linejoin="round"/>
</g>
<defs>
<clipPath id="clip0_1462_168">
<rect width="16" height="16" fill="white"/>
</clipPath>
</defs>
</svg>
