<svg width="21" height="20" viewBox="0 0 21 20" fill="none" xmlns="http://www.w3.org/2000/svg">
<mask id="path-1-inside-1_1462_151" fill="white">
<path d="M10 17C10.5523 17 11 16.5523 11 16C11 15.4477 10.5523 15 10 15C9.44772 15 9 15.4477 9 16C9 16.5523 9.44772 17 10 17Z"/>
</mask>
<path d="M10 17C10.5523 17 11 16.5523 11 16C11 15.4477 10.5523 15 10 15C9.44772 15 9 15.4477 9 16C9 16.5523 9.44772 17 10 17Z" fill="white"/>
<path d="M9 16C9 15.4477 9.44772 15 10 15V19C11.6569 19 13 17.6569 13 16H9ZM10 15C10.5523 15 11 15.4477 11 16H7C7 17.6569 8.34315 19 10 19V15ZM11 16C11 16.5523 10.5523 17 10 17V13C8.34315 13 7 14.3431 7 16H11ZM10 17C9.44772 17 9 16.5523 9 16H13C13 14.3431 11.6569 13 10 13V17Z" fill="white" mask="url(#path-1-inside-1_1462_151)"/>
<path d="M10 7L10 13" stroke="white" stroke-width="2.5" stroke-linecap="round" stroke-linejoin="round"/>
<path d="M1.21942 16.1928L8.16345 3.07228C8.92018 1.64257 11.0798 1.64258 11.8365 3.07228L18.7806 16.1928C19.4632 17.4825 18.4704 19 16.944 19H3.05592C1.52955 19 0.536804 17.4825 1.21942 16.1928Z" stroke="white" stroke-linecap="round" stroke-linejoin="round"/>
</svg>
