<svg width="21" height="21" viewBox="0 0 21 21" fill="none" xmlns="http://www.w3.org/2000/svg">
<g clip-path="url(#clip0_369_22)">
<path d="M21 10.2299C21 15.8793 16.3846 20.459 10.69 20.459C8.8829 20.459 7.18535 19.9968 5.7076 19.1874L0 21L1.86053 15.5102C0.922392 13.9694 0.382105 12.1602 0.382105 10.2292C0.382789 4.57978 4.9968 0 10.6914 0C16.3853 0.00136955 21 4.58046 21 10.2299ZM10.6893 1.63113C5.91029 1.63113 2.02283 5.48916 2.02283 10.2319C2.02283 12.1137 2.63638 13.8557 3.67382 15.2732L2.59187 18.4663L5.92125 17.4084C7.2908 18.3068 8.92947 18.8299 10.6893 18.8299C15.4684 18.8299 19.3572 14.9726 19.3572 10.2299C19.3586 5.48916 15.4691 1.63113 10.6893 1.63113ZM15.8964 12.5862C15.832 12.4828 15.6635 12.4198 15.4116 12.2938C15.1602 12.1678 13.916 11.5617 13.6852 11.4796C13.4524 11.3953 13.284 11.3529 13.1155 11.6042C12.9491 11.8555 12.4643 12.4198 12.3157 12.5882C12.1685 12.756 12.0212 12.7772 11.7685 12.6533C11.5159 12.5259 10.701 12.263 9.73545 11.409C8.98425 10.7434 8.47683 9.92376 8.33029 9.67245C8.18169 9.42182 8.31522 9.28624 8.44054 9.16161C8.55353 9.04862 8.69322 8.86852 8.8199 8.7213C8.94659 8.57544 8.98836 8.47204 9.07259 8.30427C9.15544 8.1365 9.11367 7.99064 9.05136 7.86396C8.98836 7.73796 8.48368 6.50536 8.27208 6.00342C8.06186 5.50217 7.85163 5.58503 7.70372 5.58503C7.55649 5.58503 7.38804 5.56448 7.21958 5.56448C7.05113 5.56448 6.77722 5.62543 6.54645 5.87674C6.31568 6.12805 5.66241 6.73408 5.66241 7.96804C5.66241 9.20338 6.56699 10.3942 6.69368 10.5613C6.82105 10.7277 8.44259 13.3428 11.0112 14.3467C13.5811 15.3499 13.5811 15.0151 14.0441 14.9726C14.5083 14.9302 15.5396 14.3666 15.7491 13.7818C15.9601 13.1942 15.9601 12.6909 15.8964 12.5862Z" fill="white"/>
</g>
<defs>
<clipPath id="clip0_369_22">
<rect width="21" height="21" fill="white"/>
</clipPath>
</defs>
</svg>
